<?xml version="1.0" encoding="UTF-8" standalone="no"?><svg xmlns="http://www.w3.org/2000/svg" xmlns:xlink="http://www.w3.org/1999/xlink" contentStyleType="text/css" height="1261px" preserveAspectRatio="none" style="width:2630px;height:1261px;background:#FFFFFF;" version="1.1" viewBox="0 0 2630 1261" width="2630px" zoomAndPan="magnify"><defs/><g><!--MD5=[c29f87d7a5561d1f2ea6953bf81a2239]
cluster dices--><g id="cluster_dices"><rect height="843" rx="2.5" ry="2.5" style="stroke:#181818;stroke-width:1.0;fill:none;" width="146" x="745" y="151.5"/><text fill="#000000" font-family="sans-serif" font-size="14" font-weight="bold" lengthAdjust="spacing" textLength="42" x="797" y="166.4951">dices</text></g><!--MD5=[3e81cc6ee7da4fa8b6adc12b329096f6]
cluster util--><g id="cluster_util"><rect height="794" rx="2.5" ry="2.5" style="stroke:#181818;stroke-width:1.0;fill:none;" width="305" x="7" y="184"/><text fill="#000000" font-family="sans-serif" font-size="14" font-weight="bold" lengthAdjust="spacing" textLength="28" x="145.5" y="198.9951">util</text></g><!--MD5=[ac908c79d6e0e8d486b36ddc4a5af44f]
cluster cards--><g id="cluster_cards"><rect height="851.5" rx="2.5" ry="2.5" style="stroke:#181818;stroke-width:1.0;fill:none;" width="1134" x="915" y="94"/><text fill="#000000" font-family="sans-serif" font-size="14" font-weight="bold" lengthAdjust="spacing" textLength="45" x="1459.5" y="108.9951">cards</text></g><!--MD5=[e46fbf78850e80b90824a6358c856b8f]
cluster pieces--><g id="cluster_pieces"><rect height="197" rx="2.5" ry="2.5" style="stroke:#181818;stroke-width:1.0;fill:none;" width="128" x="2073" y="143"/><text fill="#000000" font-family="sans-serif" font-size="14" font-weight="bold" lengthAdjust="spacing" textLength="51" x="2111.5" y="157.9951">pieces</text></g><!--MD5=[42603eecb267091c13893a16d8c379fb]
cluster player--><g id="cluster_player"><rect height="1136.5" rx="2.5" ry="2.5" style="stroke:#181818;stroke-width:1.0;fill:none;" width="178" x="2225" y="118.5"/><text fill="#000000" font-family="sans-serif" font-size="14" font-weight="bold" lengthAdjust="spacing" textLength="50" x="2289" y="133.4951">player</text></g><!--MD5=[f96dd54673a20b18f3bb095467416e15]
cluster specialcards--><g id="cluster_specialcards"><path d="M2429.5,127 L2532.5,127 A3.75,3.75 0 0 1 2535,129.5 L2542,149.2969 L2620.5,149.2969 A2.5,2.5 0 0 1 2623,151.7969 L2623,983.5 A2.5,2.5 0 0 1 2620.5,986 L2429.5,986 A2.5,2.5 0 0 1 2427,983.5 L2427,129.5 A2.5,2.5 0 0 1 2429.5,127 " style="stroke:#000000;stroke-width:1.5;fill:none;"/><line style="stroke:#000000;stroke-width:1.5;fill:none;" x1="2427" x2="2542" y1="149.2969" y2="149.2969"/><text fill="#000000" font-family="sans-serif" font-size="14" font-weight="bold" lengthAdjust="spacing" textLength="102" x="2431" y="141.9951">specialcards</text></g><!--MD5=[502920fb2a65b97f762c8e0ce789c36d]
class dices--><g id="elem_dices"><rect codeLine="47" fill="#F1F1F1" height="145.7813" id="dices" rx="2.5" ry="2.5" style="stroke:#181818;stroke-width:0.5;" width="100" x="761" y="832.5"/><ellipse cx="789.95" cy="848.5" fill="#ADD1B2" rx="11" ry="11" style="stroke:#181818;stroke-width:1.0;"/><path d="M792.2938,844.1719 C791.3563,843.7344 790.7625,843.5938 789.8875,843.5938 C787.2625,843.5938 785.2625,845.6719 785.2625,848.3906 L785.2625,849.5156 C785.2625,852.0938 787.3719,853.9844 790.2625,853.9844 C791.4813,853.9844 792.6375,853.6875 793.3875,853.1406 C793.9656,852.7344 794.2938,852.2813 794.2938,851.8906 C794.2938,851.4375 793.9031,851.0469 793.4344,851.0469 C793.2156,851.0469 793.0125,851.125 792.825,851.3125 C792.3719,851.7969 792.3719,851.7969 792.1844,851.8906 C791.7625,852.1563 791.075,852.2813 790.3094,852.2813 C788.2625,852.2813 786.9656,851.1875 786.9656,849.4844 L786.9656,848.3906 C786.9656,846.6094 788.2156,845.2969 789.95,845.2969 C790.5281,845.2969 791.1375,845.4531 791.6063,845.7031 C792.0906,845.9844 792.2625,846.2031 792.3563,846.6094 C792.4188,847.0156 792.45,847.1406 792.5906,847.2656 C792.7313,847.4063 792.9656,847.5156 793.1844,847.5156 C793.45,847.5156 793.7156,847.375 793.8875,847.1563 C793.9969,847 794.0281,846.8125 794.0281,846.3906 L794.0281,844.9688 C794.0281,844.5313 794.0125,844.4063 793.9188,844.25 C793.7625,843.9844 793.4813,843.8438 793.1844,843.8438 C792.8875,843.8438 792.6844,843.9375 792.4656,844.25 L792.2938,844.1719 Z " fill="#000000"/><text fill="#000000" font-family="sans-serif" font-size="14" lengthAdjust="spacing" textLength="37" x="807.05" y="853.3467">dices</text><line style="stroke:#181818;stroke-width:0.5;" x1="762" x2="860" y1="864.5" y2="864.5"/><ellipse cx="772" cy="875.5" fill="none" rx="3" ry="3" style="stroke:#038048;stroke-width:1.0;"/><text fill="#000000" font-family="sans-serif" font-size="14" lengthAdjust="spacing" text-decoration="underline" textLength="37" x="781" y="881.4951">dices</text><ellipse cx="772" cy="891.7969" fill="none" rx="3" ry="3" style="stroke:#038048;stroke-width:1.0;"/><text fill="#000000" font-family="sans-serif" font-size="14" lengthAdjust="spacing" text-decoration="underline" textLength="73" x="781" y="897.792">pahtDices</text><ellipse cx="772" cy="908.0938" fill="none" rx="3" ry="3" style="stroke:#038048;stroke-width:1.0;"/><text fill="#000000" font-family="sans-serif" font-size="14" lengthAdjust="spacing" text-decoration="underline" textLength="74" x="781" y="914.0889">max_value</text><line style="stroke:#181818;stroke-width:0.5;" x1="762" x2="860" y1="921.3906" y2="921.3906"/><ellipse cx="772" cy="932.3906" fill="#84BE84" rx="3" ry="3" style="stroke:#038048;stroke-width:1.0;"/><text fill="#000000" font-family="sans-serif" font-size="14" lengthAdjust="spacing" text-decoration="underline" textLength="62" x="781" y="938.3857">upLoad()</text><ellipse cx="772" cy="948.6875" fill="#84BE84" rx="3" ry="3" style="stroke:#038048;stroke-width:1.0;"/><text fill="#000000" font-family="sans-serif" font-size="14" lengthAdjust="spacing" text-decoration="underline" textLength="72" x="781" y="954.6826">rollDices()</text><ellipse cx="772" cy="964.9844" fill="#84BE84" rx="3" ry="3" style="stroke:#038048;stroke-width:1.0;"/><text fill="#000000" font-family="sans-serif" font-size="14" lengthAdjust="spacing" text-decoration="underline" textLength="48" x="781" y="970.9795">isPair()</text></g><!--MD5=[9c4d857b3f693361794c12923d1f52b0]
class dicesResult--><g id="elem_dicesResult"><rect codeLine="55" fill="#F1F1F1" height="129.4844" id="dicesResult" rx="2.5" ry="2.5" style="stroke:#181818;stroke-width:0.5;" width="114" x="761" y="186.5"/><ellipse cx="776" cy="202.5" fill="#ADD1B2" rx="11" ry="11" style="stroke:#181818;stroke-width:1.0;"/><path d="M778.3438,198.1719 C777.4063,197.7344 776.8125,197.5938 775.9375,197.5938 C773.3125,197.5938 771.3125,199.6719 771.3125,202.3906 L771.3125,203.5156 C771.3125,206.0938 773.4219,207.9844 776.3125,207.9844 C777.5313,207.9844 778.6875,207.6875 779.4375,207.1406 C780.0156,206.7344 780.3438,206.2813 780.3438,205.8906 C780.3438,205.4375 779.9531,205.0469 779.4844,205.0469 C779.2656,205.0469 779.0625,205.125 778.875,205.3125 C778.4219,205.7969 778.4219,205.7969 778.2344,205.8906 C777.8125,206.1563 777.125,206.2813 776.3594,206.2813 C774.3125,206.2813 773.0156,205.1875 773.0156,203.4844 L773.0156,202.3906 C773.0156,200.6094 774.2656,199.2969 776,199.2969 C776.5781,199.2969 777.1875,199.4531 777.6563,199.7031 C778.1406,199.9844 778.3125,200.2031 778.4063,200.6094 C778.4688,201.0156 778.5,201.1406 778.6406,201.2656 C778.7813,201.4063 779.0156,201.5156 779.2344,201.5156 C779.5,201.5156 779.7656,201.375 779.9375,201.1563 C780.0469,201 780.0781,200.8125 780.0781,200.3906 L780.0781,198.9688 C780.0781,198.5313 780.0625,198.4063 779.9688,198.25 C779.8125,197.9844 779.5313,197.8438 779.2344,197.8438 C778.9375,197.8438 778.7344,197.9375 778.5156,198.25 L778.3438,198.1719 Z " fill="#000000"/><text fill="#000000" font-family="sans-serif" font-size="14" lengthAdjust="spacing" textLength="82" x="790" y="207.3467">dicesResult</text><line style="stroke:#181818;stroke-width:0.5;" x1="762" x2="874" y1="218.5" y2="218.5"/><ellipse cx="772" cy="229.5" fill="none" rx="3" ry="3" style="stroke:#038048;stroke-width:1.0;"/><text fill="#000000" font-family="sans-serif" font-size="14" lengthAdjust="spacing" textLength="48" x="781" y="235.4951">results</text><ellipse cx="772" cy="245.7969" fill="none" rx="3" ry="3" style="stroke:#038048;stroke-width:1.0;"/><text fill="#000000" font-family="sans-serif" font-size="14" lengthAdjust="spacing" textLength="38" x="781" y="251.792">isPair</text><ellipse cx="772" cy="262.0938" fill="none" rx="3" ry="3" style="stroke:#038048;stroke-width:1.0;"/><text fill="#000000" font-family="sans-serif" font-size="14" lengthAdjust="spacing" textLength="41" x="781" y="268.0889">result</text><ellipse cx="772" cy="278.3906" fill="none" rx="3" ry="3" style="stroke:#038048;stroke-width:1.0;"/><text fill="#000000" font-family="sans-serif" font-size="14" lengthAdjust="spacing" textLength="73" x="781" y="284.3857">pathDices</text><line style="stroke:#181818;stroke-width:0.5;" x1="762" x2="874" y1="291.6875" y2="291.6875"/><ellipse cx="772" cy="302.6875" fill="#84BE84" rx="3" ry="3" style="stroke:#038048;stroke-width:1.0;"/><text fill="#000000" font-family="sans-serif" font-size="14" lengthAdjust="spacing" textLength="60" x="781" y="308.6826">display()</text></g><!--MD5=[6f333e551b18bc3e65f9db984f70a472]
class DeleteRegister--><g id="elem_DeleteRegister"><rect codeLine="65" fill="#F1F1F1" height="64.2969" id="DeleteRegister" rx="2.5" ry="2.5" style="stroke:#181818;stroke-width:0.5;" width="144" x="23" y="219"/><ellipse cx="38.9" cy="235" fill="#ADD1B2" rx="11" ry="11" style="stroke:#181818;stroke-width:1.0;"/><path d="M41.2438,230.6719 C40.3063,230.2344 39.7125,230.0938 38.8375,230.0938 C36.2125,230.0938 34.2125,232.1719 34.2125,234.8906 L34.2125,236.0156 C34.2125,238.5938 36.3219,240.4844 39.2125,240.4844 C40.4313,240.4844 41.5875,240.1875 42.3375,239.6406 C42.9156,239.2344 43.2438,238.7813 43.2438,238.3906 C43.2438,237.9375 42.8531,237.5469 42.3844,237.5469 C42.1656,237.5469 41.9625,237.625 41.775,237.8125 C41.3219,238.2969 41.3219,238.2969 41.1344,238.3906 C40.7125,238.6563 40.025,238.7813 39.2594,238.7813 C37.2125,238.7813 35.9156,237.6875 35.9156,235.9844 L35.9156,234.8906 C35.9156,233.1094 37.1656,231.7969 38.9,231.7969 C39.4781,231.7969 40.0875,231.9531 40.5563,232.2031 C41.0406,232.4844 41.2125,232.7031 41.3063,233.1094 C41.3688,233.5156 41.4,233.6406 41.5406,233.7656 C41.6813,233.9063 41.9156,234.0156 42.1344,234.0156 C42.4,234.0156 42.6656,233.875 42.8375,233.6563 C42.9469,233.5 42.9781,233.3125 42.9781,232.8906 L42.9781,231.4688 C42.9781,231.0313 42.9625,230.9063 42.8688,230.75 C42.7125,230.4844 42.4313,230.3438 42.1344,230.3438 C41.8375,230.3438 41.6344,230.4375 41.4156,230.75 L41.2438,230.6719 Z " fill="#000000"/><text fill="#000000" font-family="sans-serif" font-size="14" lengthAdjust="spacing" textLength="110" x="53.1" y="239.8467">DeleteRegister</text><line style="stroke:#181818;stroke-width:0.5;" x1="24" x2="166" y1="251" y2="251"/><line style="stroke:#181818;stroke-width:0.5;" x1="24" x2="166" y1="259" y2="259"/><ellipse cx="34" cy="270" fill="#84BE84" rx="3" ry="3" style="stroke:#038048;stroke-width:1.0;"/><text fill="#000000" font-family="sans-serif" font-size="14" lengthAdjust="spacing" text-decoration="underline" textLength="118" x="43" y="275.9951">deleteRegister()</text></g><!--MD5=[4dc21dcb80f7fab4cd580666bf09699c]
class ReadFile--><g id="elem_ReadFile"><rect codeLine="69" fill="#F1F1F1" height="64.2969" id="ReadFile" rx="2.5" ry="2.5" style="stroke:#181818;stroke-width:0.5;" width="93" x="202.5" y="219"/><ellipse cx="217.5" cy="235" fill="#ADD1B2" rx="11" ry="11" style="stroke:#181818;stroke-width:1.0;"/><path d="M219.8438,230.6719 C218.9063,230.2344 218.3125,230.0938 217.4375,230.0938 C214.8125,230.0938 212.8125,232.1719 212.8125,234.8906 L212.8125,236.0156 C212.8125,238.5938 214.9219,240.4844 217.8125,240.4844 C219.0313,240.4844 220.1875,240.1875 220.9375,239.6406 C221.5156,239.2344 221.8438,238.7813 221.8438,238.3906 C221.8438,237.9375 221.4531,237.5469 220.9844,237.5469 C220.7656,237.5469 220.5625,237.625 220.375,237.8125 C219.9219,238.2969 219.9219,238.2969 219.7344,238.3906 C219.3125,238.6563 218.625,238.7813 217.8594,238.7813 C215.8125,238.7813 214.5156,237.6875 214.5156,235.9844 L214.5156,234.8906 C214.5156,233.1094 215.7656,231.7969 217.5,231.7969 C218.0781,231.7969 218.6875,231.9531 219.1563,232.2031 C219.6406,232.4844 219.8125,232.7031 219.9063,233.1094 C219.9688,233.5156 220,233.6406 220.1406,233.7656 C220.2813,233.9063 220.5156,234.0156 220.7344,234.0156 C221,234.0156 221.2656,233.875 221.4375,233.6563 C221.5469,233.5 221.5781,233.3125 221.5781,232.8906 L221.5781,231.4688 C221.5781,231.0313 221.5625,230.9063 221.4688,230.75 C221.3125,230.4844 221.0313,230.3438 220.7344,230.3438 C220.4375,230.3438 220.2344,230.4375 220.0156,230.75 L219.8438,230.6719 Z " fill="#000000"/><text fill="#000000" font-family="sans-serif" font-size="14" lengthAdjust="spacing" textLength="61" x="231.5" y="239.8467">ReadFile</text><line style="stroke:#181818;stroke-width:0.5;" x1="203.5" x2="294.5" y1="251" y2="251"/><line style="stroke:#181818;stroke-width:0.5;" x1="203.5" x2="294.5" y1="259" y2="259"/><ellipse cx="213.5" cy="270" fill="#84BE84" rx="3" ry="3" style="stroke:#038048;stroke-width:1.0;"/><text fill="#000000" font-family="sans-serif" font-size="14" lengthAdjust="spacing" text-decoration="underline" textLength="42" x="222.5" y="275.9951">read()</text></g><!--MD5=[a994ef709dbb2274ab3e61a336ddd782]
class WriteFile--><g id="elem_WriteFile"><rect codeLine="72" fill="#F1F1F1" height="113.1875" id="WriteFile" rx="2.5" ry="2.5" style="stroke:#181818;stroke-width:0.5;" width="108" x="41" y="849"/><ellipse cx="60.95" cy="865" fill="#ADD1B2" rx="11" ry="11" style="stroke:#181818;stroke-width:1.0;"/><path d="M63.2938,860.6719 C62.3563,860.2344 61.7625,860.0938 60.8875,860.0938 C58.2625,860.0938 56.2625,862.1719 56.2625,864.8906 L56.2625,866.0156 C56.2625,868.5938 58.3719,870.4844 61.2625,870.4844 C62.4813,870.4844 63.6375,870.1875 64.3875,869.6406 C64.9656,869.2344 65.2938,868.7813 65.2938,868.3906 C65.2938,867.9375 64.9031,867.5469 64.4344,867.5469 C64.2156,867.5469 64.0125,867.625 63.825,867.8125 C63.3719,868.2969 63.3719,868.2969 63.1844,868.3906 C62.7625,868.6563 62.075,868.7813 61.3094,868.7813 C59.2625,868.7813 57.9656,867.6875 57.9656,865.9844 L57.9656,864.8906 C57.9656,863.1094 59.2156,861.7969 60.95,861.7969 C61.5281,861.7969 62.1375,861.9531 62.6063,862.2031 C63.0906,862.4844 63.2625,862.7031 63.3563,863.1094 C63.4188,863.5156 63.45,863.6406 63.5906,863.7656 C63.7313,863.9063 63.9656,864.0156 64.1844,864.0156 C64.45,864.0156 64.7156,863.875 64.8875,863.6563 C64.9969,863.5 65.0281,863.3125 65.0281,862.8906 L65.0281,861.4688 C65.0281,861.0313 65.0125,860.9063 64.9188,860.75 C64.7625,860.4844 64.4813,860.3438 64.1844,860.3438 C63.8875,860.3438 63.6844,860.4375 63.4656,860.75 L63.2938,860.6719 Z " fill="#000000"/><text fill="#000000" font-family="sans-serif" font-size="14" lengthAdjust="spacing" textLength="65" x="76.05" y="869.8467">WriteFile</text><line style="stroke:#181818;stroke-width:0.5;" x1="42" x2="148" y1="881" y2="881"/><line style="stroke:#181818;stroke-width:0.5;" x1="42" x2="148" y1="889" y2="889"/><ellipse cx="52" cy="900" fill="#84BE84" rx="3" ry="3" style="stroke:#038048;stroke-width:1.0;"/><text fill="#000000" font-family="sans-serif" font-size="14" lengthAdjust="spacing" text-decoration="underline" textLength="81" x="61" y="905.9951">appendall()</text><ellipse cx="52" cy="916.2969" fill="#84BE84" rx="3" ry="3" style="stroke:#038048;stroke-width:1.0;"/><text fill="#000000" font-family="sans-serif" font-size="14" lengthAdjust="spacing" text-decoration="underline" textLength="82" x="61" y="922.292">createFile()</text><ellipse cx="52" cy="932.5938" fill="#84BE84" rx="3" ry="3" style="stroke:#038048;stroke-width:1.0;"/><text fill="#000000" font-family="sans-serif" font-size="14" lengthAdjust="spacing" text-decoration="underline" textLength="47" x="61" y="938.5889">write()</text><ellipse cx="52" cy="948.8906" fill="#84BE84" rx="3" ry="3" style="stroke:#038048;stroke-width:1.0;"/><text fill="#000000" font-family="sans-serif" font-size="14" lengthAdjust="spacing" text-decoration="underline" textLength="63" x="61" y="954.8857">writeall()</text></g><!--MD5=[5e305716458bbdabbd2d7f572ed2bae2]
class Card--><g id="elem_Card"><rect codeLine="81" fill="#F1F1F1" height="243.5625" id="Card" rx="2.5" ry="2.5" style="stroke:#181818;stroke-width:0.5;" width="120" x="1383" y="129"/><ellipse cx="1422.3" cy="145" fill="#A9DCDF" rx="11" ry="11" style="stroke:#181818;stroke-width:1.0;"/><path d="M1424.3781,146.8125 L1424.7688,147.7969 L1424.3781,147.7969 C1423.925,147.7969 1423.8156,147.8125 1423.6594,147.9219 C1423.4094,148.0781 1423.2531,148.3594 1423.2531,148.6563 C1423.2531,148.9219 1423.3938,149.1719 1423.6125,149.3281 C1423.7531,149.4531 1423.9563,149.5 1424.3781,149.5 L1426.7375,149.5 C1427.0969,149.5 1427.3156,149.4688 1427.4563,149.375 C1427.7063,149.2344 1427.8625,148.9375 1427.8625,148.6563 C1427.8625,148.375 1427.7219,148.125 1427.5031,147.9688 C1427.3313,147.8281 1427.175,147.7969 1426.7063,147.7969 L1423.3156,139.5938 L1419.6438,139.5938 C1419.1906,139.5938 1419.0656,139.6094 1418.9094,139.7031 C1418.6594,139.875 1418.5031,140.1563 1418.5031,140.4375 C1418.5031,140.7188 1418.6438,140.9688 1418.8625,141.1406 C1419.0344,141.25 1419.2063,141.2813 1419.6438,141.2813 L1420.7219,141.2813 L1418.0813,147.7969 C1417.6594,147.7969 1417.5031,147.8125 1417.3469,147.9219 C1417.0969,148.0781 1416.9406,148.3594 1416.9406,148.6563 C1416.9406,149.2188 1417.3156,149.5 1418.0656,149.5 L1420.3313,149.5 C1420.6906,149.5 1420.9094,149.4688 1421.0344,149.375 C1421.3,149.2344 1421.4406,148.9375 1421.4406,148.6563 C1421.4406,148.375 1421.3156,148.125 1421.0969,147.9531 C1420.925,147.8281 1420.7844,147.7969 1420.3313,147.7969 L1419.9406,147.7969 L1420.3313,146.8125 L1424.3781,146.8125 Z M1423.675,145.1094 L1421.0031,145.1094 L1422.3469,141.8438 L1423.675,145.1094 Z " fill="#000000"/><text fill="#000000" font-family="sans-serif" font-size="14" font-style="italic" lengthAdjust="spacing" textLength="34" x="1441.7" y="149.8467">Card</text><line style="stroke:#181818;stroke-width:0.5;" x1="1384" x2="1502" y1="161" y2="161"/><ellipse cx="1394" cy="172" fill="none" rx="3" ry="3" style="stroke:#038048;stroke-width:1.0;"/><text fill="#000000" font-family="sans-serif" font-size="14" lengthAdjust="spacing" textLength="40" x="1403" y="177.9951">name</text><ellipse cx="1394" cy="188.2969" fill="none" rx="3" ry="3" style="stroke:#038048;stroke-width:1.0;"/><text fill="#000000" font-family="sans-serif" font-size="14" lengthAdjust="spacing" textLength="73" x="1403" y="194.292">isOwnable</text><ellipse cx="1394" cy="204.5938" fill="none" rx="3" ry="3" style="stroke:#038048;stroke-width:1.0;"/><text fill="#000000" font-family="sans-serif" font-size="14" lengthAdjust="spacing" textLength="60" x="1403" y="210.5889">isOwned</text><ellipse cx="1394" cy="220.8906" fill="none" rx="3" ry="3" style="stroke:#038048;stroke-width:1.0;"/><text fill="#000000" font-family="sans-serif" font-size="14" lengthAdjust="spacing" textLength="85" x="1403" y="226.8857">isMortgable</text><ellipse cx="1394" cy="237.1875" fill="none" rx="3" ry="3" style="stroke:#038048;stroke-width:1.0;"/><text fill="#000000" font-family="sans-serif" font-size="14" lengthAdjust="spacing" textLength="94" x="1403" y="243.1826">isMortgabled</text><ellipse cx="1394" cy="253.4844" fill="none" rx="3" ry="3" style="stroke:#038048;stroke-width:1.0;"/><text fill="#000000" font-family="sans-serif" font-size="14" lengthAdjust="spacing" textLength="90" x="1403" y="259.4795">selling_price</text><ellipse cx="1394" cy="269.7813" fill="none" rx="3" ry="3" style="stroke:#038048;stroke-width:1.0;"/><text fill="#000000" font-family="sans-serif" font-size="14" lengthAdjust="spacing" textLength="87" x="1403" y="275.7764">rental_price</text><ellipse cx="1394" cy="286.0781" fill="none" rx="3" ry="3" style="stroke:#038048;stroke-width:1.0;"/><text fill="#000000" font-family="sans-serif" font-size="14" lengthAdjust="spacing" textLength="34" x="1403" y="292.0732">type</text><ellipse cx="1394" cy="302.375" fill="none" rx="3" ry="3" style="stroke:#038048;stroke-width:1.0;"/><text fill="#000000" font-family="sans-serif" font-size="14" lengthAdjust="spacing" textLength="44" x="1403" y="308.3701">owner</text><ellipse cx="1394" cy="318.6719" fill="none" rx="3" ry="3" style="stroke:#038048;stroke-width:1.0;"/><text fill="#000000" font-family="sans-serif" font-size="14" lengthAdjust="spacing" textLength="39" x="1403" y="324.667">index</text><ellipse cx="1394" cy="334.9688" fill="none" rx="3" ry="3" style="stroke:#038048;stroke-width:1.0;"/><text fill="#000000" font-family="sans-serif" font-size="14" lengthAdjust="spacing" textLength="33" x="1403" y="340.9639">next</text><ellipse cx="1394" cy="351.2656" fill="none" rx="3" ry="3" style="stroke:#038048;stroke-width:1.0;"/><text fill="#000000" font-family="sans-serif" font-size="14" lengthAdjust="spacing" textLength="33" x="1403" y="357.2607">prev</text><line style="stroke:#181818;stroke-width:0.5;" x1="1384" x2="1502" y1="364.5625" y2="364.5625"/></g><!--MD5=[a0334563175ae9e71733906106d49983]
class Ark--><g id="elem_Ark"><rect codeLine="96" fill="#F1F1F1" height="48" id="Ark" rx="2.5" ry="2.5" style="stroke:#181818;stroke-width:0.5;" width="57" x="931.5" y="881.5"/><ellipse cx="946.5" cy="897.5" fill="#ADD1B2" rx="11" ry="11" style="stroke:#181818;stroke-width:1.0;"/><path d="M948.8438,893.1719 C947.9063,892.7344 947.3125,892.5938 946.4375,892.5938 C943.8125,892.5938 941.8125,894.6719 941.8125,897.3906 L941.8125,898.5156 C941.8125,901.0938 943.9219,902.9844 946.8125,902.9844 C948.0313,902.9844 949.1875,902.6875 949.9375,902.1406 C950.5156,901.7344 950.8438,901.2813 950.8438,900.8906 C950.8438,900.4375 950.4531,900.0469 949.9844,900.0469 C949.7656,900.0469 949.5625,900.125 949.375,900.3125 C948.9219,900.7969 948.9219,900.7969 948.7344,900.8906 C948.3125,901.1563 947.625,901.2813 946.8594,901.2813 C944.8125,901.2813 943.5156,900.1875 943.5156,898.4844 L943.5156,897.3906 C943.5156,895.6094 944.7656,894.2969 946.5,894.2969 C947.0781,894.2969 947.6875,894.4531 948.1563,894.7031 C948.6406,894.9844 948.8125,895.2031 948.9063,895.6094 C948.9688,896.0156 949,896.1406 949.1406,896.2656 C949.2813,896.4063 949.5156,896.5156 949.7344,896.5156 C950,896.5156 950.2656,896.375 950.4375,896.1563 C950.5469,896 950.5781,895.8125 950.5781,895.3906 L950.5781,893.9688 C950.5781,893.5313 950.5625,893.4063 950.4688,893.25 C950.3125,892.9844 950.0313,892.8438 949.7344,892.8438 C949.4375,892.8438 949.2344,892.9375 949.0156,893.25 L948.8438,893.1719 Z " fill="#000000"/><text fill="#000000" font-family="sans-serif" font-size="14" lengthAdjust="spacing" textLength="25" x="960.5" y="902.3467">Ark</text><line style="stroke:#181818;stroke-width:0.5;" x1="932.5" x2="987.5" y1="913.5" y2="913.5"/><line style="stroke:#181818;stroke-width:0.5;" x1="932.5" x2="987.5" y1="921.5" y2="921.5"/></g><!--MD5=[e0312bba92132b5e1539284626b9eeda]
class FreeStop--><g id="elem_FreeStop"><rect codeLine="98" fill="#F1F1F1" height="48" id="FreeStop" rx="2.5" ry="2.5" style="stroke:#181818;stroke-width:0.5;" width="99" x="1023.5" y="881.5"/><ellipse cx="1038.5" cy="897.5" fill="#ADD1B2" rx="11" ry="11" style="stroke:#181818;stroke-width:1.0;"/><path d="M1040.8438,893.1719 C1039.9063,892.7344 1039.3125,892.5938 1038.4375,892.5938 C1035.8125,892.5938 1033.8125,894.6719 1033.8125,897.3906 L1033.8125,898.5156 C1033.8125,901.0938 1035.9219,902.9844 1038.8125,902.9844 C1040.0313,902.9844 1041.1875,902.6875 1041.9375,902.1406 C1042.5156,901.7344 1042.8438,901.2813 1042.8438,900.8906 C1042.8438,900.4375 1042.4531,900.0469 1041.9844,900.0469 C1041.7656,900.0469 1041.5625,900.125 1041.375,900.3125 C1040.9219,900.7969 1040.9219,900.7969 1040.7344,900.8906 C1040.3125,901.1563 1039.625,901.2813 1038.8594,901.2813 C1036.8125,901.2813 1035.5156,900.1875 1035.5156,898.4844 L1035.5156,897.3906 C1035.5156,895.6094 1036.7656,894.2969 1038.5,894.2969 C1039.0781,894.2969 1039.6875,894.4531 1040.1563,894.7031 C1040.6406,894.9844 1040.8125,895.2031 1040.9063,895.6094 C1040.9688,896.0156 1041,896.1406 1041.1406,896.2656 C1041.2813,896.4063 1041.5156,896.5156 1041.7344,896.5156 C1042,896.5156 1042.2656,896.375 1042.4375,896.1563 C1042.5469,896 1042.5781,895.8125 1042.5781,895.3906 L1042.5781,893.9688 C1042.5781,893.5313 1042.5625,893.4063 1042.4688,893.25 C1042.3125,892.9844 1042.0313,892.8438 1041.7344,892.8438 C1041.4375,892.8438 1041.2344,892.9375 1041.0156,893.25 L1040.8438,893.1719 Z " fill="#000000"/><text fill="#000000" font-family="sans-serif" font-size="14" lengthAdjust="spacing" textLength="67" x="1052.5" y="902.3467">FreeStop</text><line style="stroke:#181818;stroke-width:0.5;" x1="1024.5" x2="1121.5" y1="913.5" y2="913.5"/><line style="stroke:#181818;stroke-width:0.5;" x1="1024.5" x2="1121.5" y1="921.5" y2="921.5"/></g><!--MD5=[0bec6c79456800b7fe9b285d2d6ba38a]
class Go--><g id="elem_Go"><rect codeLine="100" fill="#F1F1F1" height="48" id="Go" rx="2.5" ry="2.5" style="stroke:#181818;stroke-width:0.5;" width="52" x="1158" y="881.5"/><ellipse cx="1173" cy="897.5" fill="#ADD1B2" rx="11" ry="11" style="stroke:#181818;stroke-width:1.0;"/><path d="M1175.3438,893.1719 C1174.4063,892.7344 1173.8125,892.5938 1172.9375,892.5938 C1170.3125,892.5938 1168.3125,894.6719 1168.3125,897.3906 L1168.3125,898.5156 C1168.3125,901.0938 1170.4219,902.9844 1173.3125,902.9844 C1174.5313,902.9844 1175.6875,902.6875 1176.4375,902.1406 C1177.0156,901.7344 1177.3438,901.2813 1177.3438,900.8906 C1177.3438,900.4375 1176.9531,900.0469 1176.4844,900.0469 C1176.2656,900.0469 1176.0625,900.125 1175.875,900.3125 C1175.4219,900.7969 1175.4219,900.7969 1175.2344,900.8906 C1174.8125,901.1563 1174.125,901.2813 1173.3594,901.2813 C1171.3125,901.2813 1170.0156,900.1875 1170.0156,898.4844 L1170.0156,897.3906 C1170.0156,895.6094 1171.2656,894.2969 1173,894.2969 C1173.5781,894.2969 1174.1875,894.4531 1174.6563,894.7031 C1175.1406,894.9844 1175.3125,895.2031 1175.4063,895.6094 C1175.4688,896.0156 1175.5,896.1406 1175.6406,896.2656 C1175.7813,896.4063 1176.0156,896.5156 1176.2344,896.5156 C1176.5,896.5156 1176.7656,896.375 1176.9375,896.1563 C1177.0469,896 1177.0781,895.8125 1177.0781,895.3906 L1177.0781,893.9688 C1177.0781,893.5313 1177.0625,893.4063 1176.9688,893.25 C1176.8125,892.9844 1176.5313,892.8438 1176.2344,892.8438 C1175.9375,892.8438 1175.7344,892.9375 1175.5156,893.25 L1175.3438,893.1719 Z " fill="#000000"/><text fill="#000000" font-family="sans-serif" font-size="14" lengthAdjust="spacing" textLength="20" x="1187" y="902.3467">Go</text><line style="stroke:#181818;stroke-width:0.5;" x1="1159" x2="1209" y1="913.5" y2="913.5"/><line style="stroke:#181818;stroke-width:0.5;" x1="1159" x2="1209" y1="921.5" y2="921.5"/></g><!--MD5=[ae180b8ca7aa8bb418be703d9c8642bd]
class GoToJail--><g id="elem_GoToJail"><rect codeLine="102" fill="#F1F1F1" height="48" id="GoToJail" rx="2.5" ry="2.5" style="stroke:#181818;stroke-width:0.5;" width="90" x="1245" y="881.5"/><ellipse cx="1260" cy="897.5" fill="#ADD1B2" rx="11" ry="11" style="stroke:#181818;stroke-width:1.0;"/><path d="M1262.3438,893.1719 C1261.4063,892.7344 1260.8125,892.5938 1259.9375,892.5938 C1257.3125,892.5938 1255.3125,894.6719 1255.3125,897.3906 L1255.3125,898.5156 C1255.3125,901.0938 1257.4219,902.9844 1260.3125,902.9844 C1261.5313,902.9844 1262.6875,902.6875 1263.4375,902.1406 C1264.0156,901.7344 1264.3438,901.2813 1264.3438,900.8906 C1264.3438,900.4375 1263.9531,900.0469 1263.4844,900.0469 C1263.2656,900.0469 1263.0625,900.125 1262.875,900.3125 C1262.4219,900.7969 1262.4219,900.7969 1262.2344,900.8906 C1261.8125,901.1563 1261.125,901.2813 1260.3594,901.2813 C1258.3125,901.2813 1257.0156,900.1875 1257.0156,898.4844 L1257.0156,897.3906 C1257.0156,895.6094 1258.2656,894.2969 1260,894.2969 C1260.5781,894.2969 1261.1875,894.4531 1261.6563,894.7031 C1262.1406,894.9844 1262.3125,895.2031 1262.4063,895.6094 C1262.4688,896.0156 1262.5,896.1406 1262.6406,896.2656 C1262.7813,896.4063 1263.0156,896.5156 1263.2344,896.5156 C1263.5,896.5156 1263.7656,896.375 1263.9375,896.1563 C1264.0469,896 1264.0781,895.8125 1264.0781,895.3906 L1264.0781,893.9688 C1264.0781,893.5313 1264.0625,893.4063 1263.9688,893.25 C1263.8125,892.9844 1263.5313,892.8438 1263.2344,892.8438 C1262.9375,892.8438 1262.7344,892.9375 1262.5156,893.25 L1262.3438,893.1719 Z " fill="#000000"/><text fill="#000000" font-family="sans-serif" font-size="14" lengthAdjust="spacing" textLength="58" x="1274" y="902.3467">GoToJail</text><line style="stroke:#181818;stroke-width:0.5;" x1="1246" x2="1334" y1="913.5" y2="913.5"/><line style="stroke:#181818;stroke-width:0.5;" x1="1246" x2="1334" y1="921.5" y2="921.5"/></g><!--MD5=[b877775845c11f11e92f605ad7805eb2]
class Jail--><g id="elem_Jail"><rect codeLine="104" fill="#F1F1F1" height="48" id="Jail" rx="2.5" ry="2.5" style="stroke:#181818;stroke-width:0.5;" width="52" x="1370" y="881.5"/><ellipse cx="1385" cy="897.5" fill="#ADD1B2" rx="11" ry="11" style="stroke:#181818;stroke-width:1.0;"/><path d="M1387.3438,893.1719 C1386.4063,892.7344 1385.8125,892.5938 1384.9375,892.5938 C1382.3125,892.5938 1380.3125,894.6719 1380.3125,897.3906 L1380.3125,898.5156 C1380.3125,901.0938 1382.4219,902.9844 1385.3125,902.9844 C1386.5313,902.9844 1387.6875,902.6875 1388.4375,902.1406 C1389.0156,901.7344 1389.3438,901.2813 1389.3438,900.8906 C1389.3438,900.4375 1388.9531,900.0469 1388.4844,900.0469 C1388.2656,900.0469 1388.0625,900.125 1387.875,900.3125 C1387.4219,900.7969 1387.4219,900.7969 1387.2344,900.8906 C1386.8125,901.1563 1386.125,901.2813 1385.3594,901.2813 C1383.3125,901.2813 1382.0156,900.1875 1382.0156,898.4844 L1382.0156,897.3906 C1382.0156,895.6094 1383.2656,894.2969 1385,894.2969 C1385.5781,894.2969 1386.1875,894.4531 1386.6563,894.7031 C1387.1406,894.9844 1387.3125,895.2031 1387.4063,895.6094 C1387.4688,896.0156 1387.5,896.1406 1387.6406,896.2656 C1387.7813,896.4063 1388.0156,896.5156 1388.2344,896.5156 C1388.5,896.5156 1388.7656,896.375 1388.9375,896.1563 C1389.0469,896 1389.0781,895.8125 1389.0781,895.3906 L1389.0781,893.9688 C1389.0781,893.5313 1389.0625,893.4063 1388.9688,893.25 C1388.8125,892.9844 1388.5313,892.8438 1388.2344,892.8438 C1387.9375,892.8438 1387.7344,892.9375 1387.5156,893.25 L1387.3438,893.1719 Z " fill="#000000"/><text fill="#000000" font-family="sans-serif" font-size="14" lengthAdjust="spacing" textLength="20" x="1399" y="902.3467">Jail</text><line style="stroke:#181818;stroke-width:0.5;" x1="1371" x2="1421" y1="913.5" y2="913.5"/><line style="stroke:#181818;stroke-width:0.5;" x1="1371" x2="1421" y1="921.5" y2="921.5"/></g><!--MD5=[d86bda98bc7d39d20342084a57ab80a7]
class Luck--><g id="elem_Luck"><rect codeLine="106" fill="#F1F1F1" height="48" id="Luck" rx="2.5" ry="2.5" style="stroke:#181818;stroke-width:0.5;" width="65" x="1457.5" y="881.5"/><ellipse cx="1472.5" cy="897.5" fill="#ADD1B2" rx="11" ry="11" style="stroke:#181818;stroke-width:1.0;"/><path d="M1474.8438,893.1719 C1473.9063,892.7344 1473.3125,892.5938 1472.4375,892.5938 C1469.8125,892.5938 1467.8125,894.6719 1467.8125,897.3906 L1467.8125,898.5156 C1467.8125,901.0938 1469.9219,902.9844 1472.8125,902.9844 C1474.0313,902.9844 1475.1875,902.6875 1475.9375,902.1406 C1476.5156,901.7344 1476.8438,901.2813 1476.8438,900.8906 C1476.8438,900.4375 1476.4531,900.0469 1475.9844,900.0469 C1475.7656,900.0469 1475.5625,900.125 1475.375,900.3125 C1474.9219,900.7969 1474.9219,900.7969 1474.7344,900.8906 C1474.3125,901.1563 1473.625,901.2813 1472.8594,901.2813 C1470.8125,901.2813 1469.5156,900.1875 1469.5156,898.4844 L1469.5156,897.3906 C1469.5156,895.6094 1470.7656,894.2969 1472.5,894.2969 C1473.0781,894.2969 1473.6875,894.4531 1474.1563,894.7031 C1474.6406,894.9844 1474.8125,895.2031 1474.9063,895.6094 C1474.9688,896.0156 1475,896.1406 1475.1406,896.2656 C1475.2813,896.4063 1475.5156,896.5156 1475.7344,896.5156 C1476,896.5156 1476.2656,896.375 1476.4375,896.1563 C1476.5469,896 1476.5781,895.8125 1476.5781,895.3906 L1476.5781,893.9688 C1476.5781,893.5313 1476.5625,893.4063 1476.4688,893.25 C1476.3125,892.9844 1476.0313,892.8438 1475.7344,892.8438 C1475.4375,892.8438 1475.2344,892.9375 1475.0156,893.25 L1474.8438,893.1719 Z " fill="#000000"/><text fill="#000000" font-family="sans-serif" font-size="14" lengthAdjust="spacing" textLength="33" x="1486.5" y="902.3467">Luck</text><line style="stroke:#181818;stroke-width:0.5;" x1="1458.5" x2="1521.5" y1="913.5" y2="913.5"/><line style="stroke:#181818;stroke-width:0.5;" x1="1458.5" x2="1521.5" y1="921.5" y2="921.5"/></g><!--MD5=[b34ad0795e0eeccd752a3970dd825c77]
class Ownership--><g id="elem_Ownership"><rect codeLine="108" fill="#F1F1F1" height="48" id="Ownership" rx="2.5" ry="2.5" style="stroke:#181818;stroke-width:0.5;" width="108" x="1558" y="881.5"/><ellipse cx="1573" cy="897.5" fill="#ADD1B2" rx="11" ry="11" style="stroke:#181818;stroke-width:1.0;"/><path d="M1575.3438,893.1719 C1574.4063,892.7344 1573.8125,892.5938 1572.9375,892.5938 C1570.3125,892.5938 1568.3125,894.6719 1568.3125,897.3906 L1568.3125,898.5156 C1568.3125,901.0938 1570.4219,902.9844 1573.3125,902.9844 C1574.5313,902.9844 1575.6875,902.6875 1576.4375,902.1406 C1577.0156,901.7344 1577.3438,901.2813 1577.3438,900.8906 C1577.3438,900.4375 1576.9531,900.0469 1576.4844,900.0469 C1576.2656,900.0469 1576.0625,900.125 1575.875,900.3125 C1575.4219,900.7969 1575.4219,900.7969 1575.2344,900.8906 C1574.8125,901.1563 1574.125,901.2813 1573.3594,901.2813 C1571.3125,901.2813 1570.0156,900.1875 1570.0156,898.4844 L1570.0156,897.3906 C1570.0156,895.6094 1571.2656,894.2969 1573,894.2969 C1573.5781,894.2969 1574.1875,894.4531 1574.6563,894.7031 C1575.1406,894.9844 1575.3125,895.2031 1575.4063,895.6094 C1575.4688,896.0156 1575.5,896.1406 1575.6406,896.2656 C1575.7813,896.4063 1576.0156,896.5156 1576.2344,896.5156 C1576.5,896.5156 1576.7656,896.375 1576.9375,896.1563 C1577.0469,896 1577.0781,895.8125 1577.0781,895.3906 L1577.0781,893.9688 C1577.0781,893.5313 1577.0625,893.4063 1576.9688,893.25 C1576.8125,892.9844 1576.5313,892.8438 1576.2344,892.8438 C1575.9375,892.8438 1575.7344,892.9375 1575.5156,893.25 L1575.3438,893.1719 Z " fill="#000000"/><text fill="#000000" font-family="sans-serif" font-size="14" lengthAdjust="spacing" textLength="76" x="1587" y="902.3467">Ownership</text><line style="stroke:#181818;stroke-width:0.5;" x1="1559" x2="1665" y1="913.5" y2="913.5"/><line style="stroke:#181818;stroke-width:0.5;" x1="1559" x2="1665" y1="921.5" y2="921.5"/></g><!--MD5=[dbb8b4f13c7b21394f9d757e58732f45]
class Service--><g id="elem_Service"><rect codeLine="110" fill="#F1F1F1" height="48" id="Service" rx="2.5" ry="2.5" style="stroke:#181818;stroke-width:0.5;" width="85" x="1701.5" y="881.5"/><ellipse cx="1716.5" cy="897.5" fill="#ADD1B2" rx="11" ry="11" style="stroke:#181818;stroke-width:1.0;"/><path d="M1718.8438,893.1719 C1717.9063,892.7344 1717.3125,892.5938 1716.4375,892.5938 C1713.8125,892.5938 1711.8125,894.6719 1711.8125,897.3906 L1711.8125,898.5156 C1711.8125,901.0938 1713.9219,902.9844 1716.8125,902.9844 C1718.0313,902.9844 1719.1875,902.6875 1719.9375,902.1406 C1720.5156,901.7344 1720.8438,901.2813 1720.8438,900.8906 C1720.8438,900.4375 1720.4531,900.0469 1719.9844,900.0469 C1719.7656,900.0469 1719.5625,900.125 1719.375,900.3125 C1718.9219,900.7969 1718.9219,900.7969 1718.7344,900.8906 C1718.3125,901.1563 1717.625,901.2813 1716.8594,901.2813 C1714.8125,901.2813 1713.5156,900.1875 1713.5156,898.4844 L1713.5156,897.3906 C1713.5156,895.6094 1714.7656,894.2969 1716.5,894.2969 C1717.0781,894.2969 1717.6875,894.4531 1718.1563,894.7031 C1718.6406,894.9844 1718.8125,895.2031 1718.9063,895.6094 C1718.9688,896.0156 1719,896.1406 1719.1406,896.2656 C1719.2813,896.4063 1719.5156,896.5156 1719.7344,896.5156 C1720,896.5156 1720.2656,896.375 1720.4375,896.1563 C1720.5469,896 1720.5781,895.8125 1720.5781,895.3906 L1720.5781,893.9688 C1720.5781,893.5313 1720.5625,893.4063 1720.4688,893.25 C1720.3125,892.9844 1720.0313,892.8438 1719.7344,892.8438 C1719.4375,892.8438 1719.2344,892.9375 1719.0156,893.25 L1718.8438,893.1719 Z " fill="#000000"/><text fill="#000000" font-family="sans-serif" font-size="14" lengthAdjust="spacing" textLength="53" x="1730.5" y="902.3467">Service</text><line style="stroke:#181818;stroke-width:0.5;" x1="1702.5" x2="1785.5" y1="913.5" y2="913.5"/><line style="stroke:#181818;stroke-width:0.5;" x1="1702.5" x2="1785.5" y1="921.5" y2="921.5"/></g><!--MD5=[66f0abf4a20c09d0ff709b48f945dc24]
class Taxes--><g id="elem_Taxes"><rect codeLine="112" fill="#F1F1F1" height="48" id="Taxes" rx="2.5" ry="2.5" style="stroke:#181818;stroke-width:0.5;" width="73" x="1821.5" y="881.5"/><ellipse cx="1836.5" cy="897.5" fill="#ADD1B2" rx="11" ry="11" style="stroke:#181818;stroke-width:1.0;"/><path d="M1838.8438,893.1719 C1837.9063,892.7344 1837.3125,892.5938 1836.4375,892.5938 C1833.8125,892.5938 1831.8125,894.6719 1831.8125,897.3906 L1831.8125,898.5156 C1831.8125,901.0938 1833.9219,902.9844 1836.8125,902.9844 C1838.0313,902.9844 1839.1875,902.6875 1839.9375,902.1406 C1840.5156,901.7344 1840.8438,901.2813 1840.8438,900.8906 C1840.8438,900.4375 1840.4531,900.0469 1839.9844,900.0469 C1839.7656,900.0469 1839.5625,900.125 1839.375,900.3125 C1838.9219,900.7969 1838.9219,900.7969 1838.7344,900.8906 C1838.3125,901.1563 1837.625,901.2813 1836.8594,901.2813 C1834.8125,901.2813 1833.5156,900.1875 1833.5156,898.4844 L1833.5156,897.3906 C1833.5156,895.6094 1834.7656,894.2969 1836.5,894.2969 C1837.0781,894.2969 1837.6875,894.4531 1838.1563,894.7031 C1838.6406,894.9844 1838.8125,895.2031 1838.9063,895.6094 C1838.9688,896.0156 1839,896.1406 1839.1406,896.2656 C1839.2813,896.4063 1839.5156,896.5156 1839.7344,896.5156 C1840,896.5156 1840.2656,896.375 1840.4375,896.1563 C1840.5469,896 1840.5781,895.8125 1840.5781,895.3906 L1840.5781,893.9688 C1840.5781,893.5313 1840.5625,893.4063 1840.4688,893.25 C1840.3125,892.9844 1840.0313,892.8438 1839.7344,892.8438 C1839.4375,892.8438 1839.2344,892.9375 1839.0156,893.25 L1838.8438,893.1719 Z " fill="#000000"/><text fill="#000000" font-family="sans-serif" font-size="14" lengthAdjust="spacing" textLength="41" x="1850.5" y="902.3467">Taxes</text><line style="stroke:#181818;stroke-width:0.5;" x1="1822.5" x2="1893.5" y1="913.5" y2="913.5"/><line style="stroke:#181818;stroke-width:0.5;" x1="1822.5" x2="1893.5" y1="921.5" y2="921.5"/></g><!--MD5=[ea193e58bf01a8bb640ee5c4ebd1a9a0]
class Transport--><g id="elem_Transport"><rect codeLine="114" fill="#F1F1F1" height="48" id="Transport" rx="2.5" ry="2.5" style="stroke:#181818;stroke-width:0.5;" width="103" x="1929.5" y="881.5"/><ellipse cx="1944.5" cy="897.5" fill="#ADD1B2" rx="11" ry="11" style="stroke:#181818;stroke-width:1.0;"/><path d="M1946.8438,893.1719 C1945.9063,892.7344 1945.3125,892.5938 1944.4375,892.5938 C1941.8125,892.5938 1939.8125,894.6719 1939.8125,897.3906 L1939.8125,898.5156 C1939.8125,901.0938 1941.9219,902.9844 1944.8125,902.9844 C1946.0313,902.9844 1947.1875,902.6875 1947.9375,902.1406 C1948.5156,901.7344 1948.8438,901.2813 1948.8438,900.8906 C1948.8438,900.4375 1948.4531,900.0469 1947.9844,900.0469 C1947.7656,900.0469 1947.5625,900.125 1947.375,900.3125 C1946.9219,900.7969 1946.9219,900.7969 1946.7344,900.8906 C1946.3125,901.1563 1945.625,901.2813 1944.8594,901.2813 C1942.8125,901.2813 1941.5156,900.1875 1941.5156,898.4844 L1941.5156,897.3906 C1941.5156,895.6094 1942.7656,894.2969 1944.5,894.2969 C1945.0781,894.2969 1945.6875,894.4531 1946.1563,894.7031 C1946.6406,894.9844 1946.8125,895.2031 1946.9063,895.6094 C1946.9688,896.0156 1947,896.1406 1947.1406,896.2656 C1947.2813,896.4063 1947.5156,896.5156 1947.7344,896.5156 C1948,896.5156 1948.2656,896.375 1948.4375,896.1563 C1948.5469,896 1948.5781,895.8125 1948.5781,895.3906 L1948.5781,893.9688 C1948.5781,893.5313 1948.5625,893.4063 1948.4688,893.25 C1948.3125,892.9844 1948.0313,892.8438 1947.7344,892.8438 C1947.4375,892.8438 1947.2344,892.9375 1947.0156,893.25 L1946.8438,893.1719 Z " fill="#000000"/><text fill="#000000" font-family="sans-serif" font-size="14" lengthAdjust="spacing" textLength="71" x="1958.5" y="902.3467">Transport</text><line style="stroke:#181818;stroke-width:0.5;" x1="1930.5" x2="2031.5" y1="913.5" y2="913.5"/><line style="stroke:#181818;stroke-width:0.5;" x1="1930.5" x2="2031.5" y1="921.5" y2="921.5"/></g><!--MD5=[0901ae9769e715b2437a415377464fe5]
class Pieces--><g id="elem_Pieces"><rect codeLine="119" fill="#F1F1F1" height="145.7813" id="Pieces" rx="2.5" ry="2.5" style="stroke:#181818;stroke-width:0.5;" width="95" x="2089.5" y="178"/><ellipse cx="2112.15" cy="194" fill="#ADD1B2" rx="11" ry="11" style="stroke:#181818;stroke-width:1.0;"/><path d="M2114.4938,189.6719 C2113.5563,189.2344 2112.9625,189.0938 2112.0875,189.0938 C2109.4625,189.0938 2107.4625,191.1719 2107.4625,193.8906 L2107.4625,195.0156 C2107.4625,197.5938 2109.5719,199.4844 2112.4625,199.4844 C2113.6813,199.4844 2114.8375,199.1875 2115.5875,198.6406 C2116.1656,198.2344 2116.4938,197.7813 2116.4938,197.3906 C2116.4938,196.9375 2116.1031,196.5469 2115.6344,196.5469 C2115.4156,196.5469 2115.2125,196.625 2115.025,196.8125 C2114.5719,197.2969 2114.5719,197.2969 2114.3844,197.3906 C2113.9625,197.6563 2113.275,197.7813 2112.5094,197.7813 C2110.4625,197.7813 2109.1656,196.6875 2109.1656,194.9844 L2109.1656,193.8906 C2109.1656,192.1094 2110.4156,190.7969 2112.15,190.7969 C2112.7281,190.7969 2113.3375,190.9531 2113.8063,191.2031 C2114.2906,191.4844 2114.4625,191.7031 2114.5563,192.1094 C2114.6188,192.5156 2114.65,192.6406 2114.7906,192.7656 C2114.9313,192.9063 2115.1656,193.0156 2115.3844,193.0156 C2115.65,193.0156 2115.9156,192.875 2116.0875,192.6563 C2116.1969,192.5 2116.2281,192.3125 2116.2281,191.8906 L2116.2281,190.4688 C2116.2281,190.0313 2116.2125,189.9063 2116.1188,189.75 C2115.9625,189.4844 2115.6813,189.3438 2115.3844,189.3438 C2115.0875,189.3438 2114.8844,189.4375 2114.6656,189.75 L2114.4938,189.6719 Z " fill="#000000"/><text fill="#000000" font-family="sans-serif" font-size="14" lengthAdjust="spacing" textLength="46" x="2127.85" y="198.8467">Pieces</text><line style="stroke:#181818;stroke-width:0.5;" x1="2090.5" x2="2183.5" y1="210" y2="210"/><ellipse cx="2100.5" cy="221" fill="none" rx="3" ry="3" style="stroke:#038048;stroke-width:1.0;"/><text fill="#000000" font-family="sans-serif" font-size="14" lengthAdjust="spacing" textLength="69" x="2109.5" y="226.9951">distancex</text><ellipse cx="2100.5" cy="237.2969" fill="none" rx="3" ry="3" style="stroke:#038048;stroke-width:1.0;"/><text fill="#000000" font-family="sans-serif" font-size="14" lengthAdjust="spacing" textLength="69" x="2109.5" y="243.292">distancey</text><ellipse cx="2100.5" cy="253.5938" fill="none" rx="3" ry="3" style="stroke:#038048;stroke-width:1.0;"/><text fill="#000000" font-family="sans-serif" font-size="14" lengthAdjust="spacing" textLength="34" x="2109.5" y="259.5889">posx</text><ellipse cx="2100.5" cy="269.8906" fill="none" rx="3" ry="3" style="stroke:#038048;stroke-width:1.0;"/><text fill="#000000" font-family="sans-serif" font-size="14" lengthAdjust="spacing" textLength="34" x="2109.5" y="275.8857">posy</text><ellipse cx="2100.5" cy="286.1875" fill="none" rx="3" ry="3" style="stroke:#038048;stroke-width:1.0;"/><text fill="#000000" font-family="sans-serif" font-size="14" lengthAdjust="spacing" textLength="43" x="2109.5" y="292.1826">topex</text><ellipse cx="2100.5" cy="302.4844" fill="none" rx="3" ry="3" style="stroke:#038048;stroke-width:1.0;"/><text fill="#000000" font-family="sans-serif" font-size="14" lengthAdjust="spacing" textLength="43" x="2109.5" y="308.4795">topey</text><line style="stroke:#181818;stroke-width:0.5;" x1="2090.5" x2="2183.5" y1="315.7813" y2="315.7813"/></g><!--MD5=[2cb47ba637a0d19583e6199456f6ad0b]
class Player--><g id="elem_Player"><rect codeLine="130" fill="#F1F1F1" height="667.2813" id="Player" rx="2.5" ry="2.5" style="stroke:#181818;stroke-width:0.5;" width="145" x="2241.5" y="572"/><ellipse cx="2287.75" cy="588" fill="#ADD1B2" rx="11" ry="11" style="stroke:#181818;stroke-width:1.0;"/><path d="M2290.0938,583.6719 C2289.1563,583.2344 2288.5625,583.0938 2287.6875,583.0938 C2285.0625,583.0938 2283.0625,585.1719 2283.0625,587.8906 L2283.0625,589.0156 C2283.0625,591.5938 2285.1719,593.4844 2288.0625,593.4844 C2289.2813,593.4844 2290.4375,593.1875 2291.1875,592.6406 C2291.7656,592.2344 2292.0938,591.7813 2292.0938,591.3906 C2292.0938,590.9375 2291.7031,590.5469 2291.2344,590.5469 C2291.0156,590.5469 2290.8125,590.625 2290.625,590.8125 C2290.1719,591.2969 2290.1719,591.2969 2289.9844,591.3906 C2289.5625,591.6563 2288.875,591.7813 2288.1094,591.7813 C2286.0625,591.7813 2284.7656,590.6875 2284.7656,588.9844 L2284.7656,587.8906 C2284.7656,586.1094 2286.0156,584.7969 2287.75,584.7969 C2288.3281,584.7969 2288.9375,584.9531 2289.4063,585.2031 C2289.8906,585.4844 2290.0625,585.7031 2290.1563,586.1094 C2290.2188,586.5156 2290.25,586.6406 2290.3906,586.7656 C2290.5313,586.9063 2290.7656,587.0156 2290.9844,587.0156 C2291.25,587.0156 2291.5156,586.875 2291.6875,586.6563 C2291.7969,586.5 2291.8281,586.3125 2291.8281,585.8906 L2291.8281,584.4688 C2291.8281,584.0313 2291.8125,583.9063 2291.7188,583.75 C2291.5625,583.4844 2291.2813,583.3438 2290.9844,583.3438 C2290.6875,583.3438 2290.4844,583.4375 2290.2656,583.75 L2290.0938,583.6719 Z " fill="#000000"/><text fill="#000000" font-family="sans-serif" font-size="14" lengthAdjust="spacing" textLength="44" x="2308.25" y="592.8467">Player</text><line style="stroke:#181818;stroke-width:0.5;" x1="2242.5" x2="2385.5" y1="604" y2="604"/><ellipse cx="2252.5" cy="615" fill="none" rx="3" ry="3" style="stroke:#038048;stroke-width:1.0;"/><text fill="#000000" font-family="sans-serif" font-size="14" lengthAdjust="spacing" textLength="40" x="2261.5" y="620.9951">name</text><ellipse cx="2252.5" cy="631.2969" fill="none" rx="3" ry="3" style="stroke:#038048;stroke-width:1.0;"/><text fill="#000000" font-family="sans-serif" font-size="14" lengthAdjust="spacing" textLength="39" x="2261.5" y="637.292">turno</text><ellipse cx="2252.5" cy="647.5938" fill="none" rx="3" ry="3" style="stroke:#038048;stroke-width:1.0;"/><text fill="#000000" font-family="sans-serif" font-size="14" lengthAdjust="spacing" textLength="49" x="2261.5" y="653.5889">money</text><ellipse cx="2252.5" cy="663.8906" fill="none" rx="3" ry="3" style="stroke:#038048;stroke-width:1.0;"/><text fill="#000000" font-family="sans-serif" font-size="14" lengthAdjust="spacing" textLength="59" x="2261.5" y="669.8857">position</text><ellipse cx="2252.5" cy="680.1875" fill="none" rx="3" ry="3" style="stroke:#038048;stroke-width:1.0;"/><text fill="#000000" font-family="sans-serif" font-size="14" lengthAdjust="spacing" textLength="70" x="2261.5" y="686.1826">isPrisoner</text><ellipse cx="2252.5" cy="696.4844" fill="none" rx="3" ry="3" style="stroke:#038048;stroke-width:1.0;"/><text fill="#000000" font-family="sans-serif" font-size="14" lengthAdjust="spacing" textLength="70" x="2261.5" y="702.4795">turnsInJail</text><ellipse cx="2252.5" cy="712.7813" fill="none" rx="3" ry="3" style="stroke:#038048;stroke-width:1.0;"/><text fill="#000000" font-family="sans-serif" font-size="14" lengthAdjust="spacing" textLength="63" x="2261.5" y="718.7764">isBroken</text><ellipse cx="2252.5" cy="729.0781" fill="none" rx="3" ry="3" style="stroke:#038048;stroke-width:1.0;"/><text fill="#000000" font-family="sans-serif" font-size="14" lengthAdjust="spacing" textLength="33" x="2261.5" y="735.0732">next</text><ellipse cx="2252.5" cy="745.375" fill="none" rx="3" ry="3" style="stroke:#038048;stroke-width:1.0;"/><text fill="#000000" font-family="sans-serif" font-size="14" lengthAdjust="spacing" textLength="33" x="2261.5" y="751.3701">prev</text><ellipse cx="2252.5" cy="761.6719" fill="none" rx="3" ry="3" style="stroke:#038048;stroke-width:1.0;"/><text fill="#000000" font-family="sans-serif" font-size="14" lengthAdjust="spacing" textLength="41" x="2261.5" y="767.667">result</text><ellipse cx="2252.5" cy="777.9688" fill="none" rx="3" ry="3" style="stroke:#038048;stroke-width:1.0;"/><text fill="#000000" font-family="sans-serif" font-size="14" lengthAdjust="spacing" textLength="77" x="2261.5" y="783.9639">properties</text><ellipse cx="2252.5" cy="794.2656" fill="none" rx="3" ry="3" style="stroke:#038048;stroke-width:1.0;"/><text fill="#000000" font-family="sans-serif" font-size="14" lengthAdjust="spacing" textLength="36" x="2261.5" y="800.2607">bank</text><ellipse cx="2252.5" cy="810.5625" fill="none" rx="3" ry="3" style="stroke:#038048;stroke-width:1.0;"/><text fill="#000000" font-family="sans-serif" font-size="14" lengthAdjust="spacing" textLength="58" x="2261.5" y="816.5576">services</text><ellipse cx="2252.5" cy="826.8594" fill="none" rx="3" ry="3" style="stroke:#038048;stroke-width:1.0;"/><text fill="#000000" font-family="sans-serif" font-size="14" lengthAdjust="spacing" textLength="69" x="2261.5" y="832.8545">transport</text><ellipse cx="2252.5" cy="843.1563" fill="none" rx="3" ry="3" style="stroke:#038048;stroke-width:1.0;"/><text fill="#000000" font-family="sans-serif" font-size="14" lengthAdjust="spacing" textLength="44" x="2261.5" y="849.1514">outjail</text><ellipse cx="2252.5" cy="859.4531" fill="none" rx="3" ry="3" style="stroke:#038048;stroke-width:1.0;"/><text fill="#000000" font-family="sans-serif" font-size="14" lengthAdjust="spacing" textLength="115" x="2261.5" y="865.4482">num_properties</text><ellipse cx="2252.5" cy="875.75" fill="none" rx="3" ry="3" style="stroke:#038048;stroke-width:1.0;"/><text fill="#000000" font-family="sans-serif" font-size="14" lengthAdjust="spacing" textLength="66" x="2261.5" y="881.7451">numpairs</text><ellipse cx="2252.5" cy="892.0469" fill="none" rx="3" ry="3" style="stroke:#038048;stroke-width:1.0;"/><text fill="#000000" font-family="sans-serif" font-size="14" lengthAdjust="spacing" textLength="40" x="2261.5" y="898.042">piece</text><ellipse cx="2252.5" cy="908.3438" fill="none" rx="3" ry="3" style="stroke:#038048;stroke-width:1.0;"/><text fill="#000000" font-family="sans-serif" font-size="14" lengthAdjust="spacing" textLength="58" x="2261.5" y="914.3389">boleano</text><ellipse cx="2252.5" cy="924.6406" fill="none" rx="3" ry="3" style="stroke:#038048;stroke-width:1.0;"/><text fill="#000000" font-family="sans-serif" font-size="14" lengthAdjust="spacing" textLength="89" x="2261.5" y="930.6357">movearound</text><rect fill="none" height="6" style="stroke:#C82930;stroke-width:1.0;" width="6" x="2249.5" y="937.9375"/><text fill="#000000" font-family="sans-serif" font-size="14" lengthAdjust="spacing" textLength="40" x="2261.5" y="946.9326">move</text><ellipse cx="2252.5" cy="957.2344" fill="none" rx="3" ry="3" style="stroke:#038048;stroke-width:1.0;"/><text fill="#000000" font-family="sans-serif" font-size="14" lengthAdjust="spacing" textLength="48" x="2261.5" y="963.2295">coords</text><ellipse cx="2252.5" cy="973.5313" fill="none" rx="3" ry="3" style="stroke:#038048;stroke-width:1.0;"/><text fill="#000000" font-family="sans-serif" font-size="14" lengthAdjust="spacing" textLength="32" x="2261.5" y="979.5264">coor</text><ellipse cx="2252.5" cy="989.8281" fill="none" rx="3" ry="3" style="stroke:#038048;stroke-width:1.0;"/><text fill="#000000" font-family="sans-serif" font-size="14" lengthAdjust="spacing" textLength="61" x="2261.5" y="995.8232">teleport</text><line style="stroke:#181818;stroke-width:0.5;" x1="2242.5" x2="2385.5" y1="1003.125" y2="1003.125"/><ellipse cx="2252.5" cy="1014.125" fill="#84BE84" rx="3" ry="3" style="stroke:#038048;stroke-width:1.0;"/><text fill="#000000" font-family="sans-serif" font-size="14" lengthAdjust="spacing" textLength="82" x="2261.5" y="1020.1201">getMoney()</text><ellipse cx="2252.5" cy="1030.4219" fill="#84BE84" rx="3" ry="3" style="stroke:#038048;stroke-width:1.0;"/><text fill="#000000" font-family="sans-serif" font-size="14" lengthAdjust="spacing" textLength="87" x="2261.5" y="1036.417">giveMoney()</text><ellipse cx="2252.5" cy="1046.7188" fill="#84BE84" rx="3" ry="3" style="stroke:#038048;stroke-width:1.0;"/><text fill="#000000" font-family="sans-serif" font-size="14" lengthAdjust="spacing" textLength="48" x="2261.5" y="1052.7139">goJail()</text><ellipse cx="2252.5" cy="1063.0156" fill="#84BE84" rx="3" ry="3" style="stroke:#038048;stroke-width:1.0;"/><text fill="#000000" font-family="sans-serif" font-size="14" lengthAdjust="spacing" textLength="54" x="2261.5" y="1069.0107">isInGo()</text><ellipse cx="2252.5" cy="1079.3125" fill="#84BE84" rx="3" ry="3" style="stroke:#038048;stroke-width:1.0;"/><text fill="#000000" font-family="sans-serif" font-size="14" lengthAdjust="spacing" textLength="101" x="2261.5" y="1085.3076">moveAround()</text><ellipse cx="2252.5" cy="1095.6094" fill="#84BE84" rx="3" ry="3" style="stroke:#038048;stroke-width:1.0;"/><text fill="#000000" font-family="sans-serif" font-size="14" lengthAdjust="spacing" textLength="101" x="2261.5" y="1101.6045">moveAround()</text><ellipse cx="2252.5" cy="1111.9063" fill="#84BE84" rx="3" ry="3" style="stroke:#038048;stroke-width:1.0;"/><text fill="#000000" font-family="sans-serif" font-size="14" lengthAdjust="spacing" textLength="119" x="2261.5" y="1117.9014">moveBackward()</text><ellipse cx="2252.5" cy="1128.2031" fill="#84BE84" rx="3" ry="3" style="stroke:#038048;stroke-width:1.0;"/><text fill="#000000" font-family="sans-serif" font-size="14" lengthAdjust="spacing" textLength="119" x="2261.5" y="1134.1982">moveBackward()</text><ellipse cx="2252.5" cy="1144.5" fill="#84BE84" rx="3" ry="3" style="stroke:#038048;stroke-width:1.0;"/><text fill="#000000" font-family="sans-serif" font-size="14" lengthAdjust="spacing" textLength="107" x="2261.5" y="1150.4951">moveForward()</text><ellipse cx="2252.5" cy="1160.7969" fill="#84BE84" rx="3" ry="3" style="stroke:#038048;stroke-width:1.0;"/><text fill="#000000" font-family="sans-serif" font-size="14" lengthAdjust="spacing" textLength="100" x="2261.5" y="1166.792">buyProperty()</text><ellipse cx="2252.5" cy="1177.0938" fill="#84BE84" rx="3" ry="3" style="stroke:#038048;stroke-width:1.0;"/><text fill="#000000" font-family="sans-serif" font-size="14" lengthAdjust="spacing" textLength="68" x="2261.5" y="1183.0889">moveTo()</text><ellipse cx="2252.5" cy="1193.3906" fill="#84BE84" rx="3" ry="3" style="stroke:#038048;stroke-width:1.0;"/><text fill="#000000" font-family="sans-serif" font-size="14" lengthAdjust="spacing" textLength="89" x="2261.5" y="1199.3857">movePiece()</text><ellipse cx="2252.5" cy="1209.6875" fill="#84BE84" rx="3" ry="3" style="stroke:#038048;stroke-width:1.0;"/><text fill="#000000" font-family="sans-serif" font-size="14" lengthAdjust="spacing" textLength="73" x="2261.5" y="1215.6826">playInJail()</text><ellipse cx="2252.5" cy="1225.9844" fill="#84BE84" rx="3" ry="3" style="stroke:#038048;stroke-width:1.0;"/><text fill="#000000" font-family="sans-serif" font-size="14" lengthAdjust="spacing" textLength="72" x="2261.5" y="1231.9795">rollDices()</text></g><!--MD5=[2b131ca723b304173527ea1352e83035]
class PlayerList--><g id="elem_PlayerList"><rect codeLine="171" fill="#F1F1F1" height="194.6719" id="PlayerList" rx="2.5" ry="2.5" style="stroke:#181818;stroke-width:0.5;" width="135" x="2241.5" y="153.5"/><ellipse cx="2271.35" cy="169.5" fill="#ADD1B2" rx="11" ry="11" style="stroke:#181818;stroke-width:1.0;"/><path d="M2273.6938,165.1719 C2272.7563,164.7344 2272.1625,164.5938 2271.2875,164.5938 C2268.6625,164.5938 2266.6625,166.6719 2266.6625,169.3906 L2266.6625,170.5156 C2266.6625,173.0938 2268.7719,174.9844 2271.6625,174.9844 C2272.8813,174.9844 2274.0375,174.6875 2274.7875,174.1406 C2275.3656,173.7344 2275.6938,173.2813 2275.6938,172.8906 C2275.6938,172.4375 2275.3031,172.0469 2274.8344,172.0469 C2274.6156,172.0469 2274.4125,172.125 2274.225,172.3125 C2273.7719,172.7969 2273.7719,172.7969 2273.5844,172.8906 C2273.1625,173.1563 2272.475,173.2813 2271.7094,173.2813 C2269.6625,173.2813 2268.3656,172.1875 2268.3656,170.4844 L2268.3656,169.3906 C2268.3656,167.6094 2269.6156,166.2969 2271.35,166.2969 C2271.9281,166.2969 2272.5375,166.4531 2273.0063,166.7031 C2273.4906,166.9844 2273.6625,167.2031 2273.7563,167.6094 C2273.8188,168.0156 2273.85,168.1406 2273.9906,168.2656 C2274.1313,168.4063 2274.3656,168.5156 2274.5844,168.5156 C2274.85,168.5156 2275.1156,168.375 2275.2875,168.1563 C2275.3969,168 2275.4281,167.8125 2275.4281,167.3906 L2275.4281,165.9688 C2275.4281,165.5313 2275.4125,165.4063 2275.3188,165.25 C2275.1625,164.9844 2274.8813,164.8438 2274.5844,164.8438 C2274.2875,164.8438 2274.0844,164.9375 2273.8656,165.25 L2273.6938,165.1719 Z " fill="#000000"/><text fill="#000000" font-family="sans-serif" font-size="14" lengthAdjust="spacing" textLength="70" x="2288.65" y="174.3467">PlayerList</text><line style="stroke:#181818;stroke-width:0.5;" x1="2242.5" x2="2375.5" y1="185.5" y2="185.5"/><ellipse cx="2252.5" cy="196.5" fill="none" rx="3" ry="3" style="stroke:#038048;stroke-width:1.0;"/><text fill="#000000" font-family="sans-serif" font-size="14" lengthAdjust="spacing" textLength="109" x="2261.5" y="202.4951">playersNumber</text><ellipse cx="2252.5" cy="212.7969" fill="none" rx="3" ry="3" style="stroke:#038048;stroke-width:1.0;"/><text fill="#000000" font-family="sans-serif" font-size="14" lengthAdjust="spacing" textLength="35" x="2261.5" y="218.792">head</text><ellipse cx="2252.5" cy="229.0938" fill="none" rx="3" ry="3" style="stroke:#038048;stroke-width:1.0;"/><text fill="#000000" font-family="sans-serif" font-size="14" lengthAdjust="spacing" textLength="23" x="2261.5" y="235.0889">tail</text><ellipse cx="2252.5" cy="245.3906" fill="none" rx="3" ry="3" style="stroke:#038048;stroke-width:1.0;"/><text fill="#000000" font-family="sans-serif" font-size="14" lengthAdjust="spacing" textLength="41" x="2261.5" y="251.3857">result</text><ellipse cx="2252.5" cy="261.6875" fill="none" rx="3" ry="3" style="stroke:#038048;stroke-width:1.0;"/><text fill="#000000" font-family="sans-serif" font-size="14" lengthAdjust="spacing" textLength="47" x="2261.5" y="267.6826">cordsx</text><ellipse cx="2252.5" cy="277.9844" fill="none" rx="3" ry="3" style="stroke:#038048;stroke-width:1.0;"/><text fill="#000000" font-family="sans-serif" font-size="14" lengthAdjust="spacing" textLength="47" x="2261.5" y="283.9795">cordsy</text><line style="stroke:#181818;stroke-width:0.5;" x1="2242.5" x2="2375.5" y1="291.2813" y2="291.2813"/><ellipse cx="2252.5" cy="302.2813" fill="#84BE84" rx="3" ry="3" style="stroke:#038048;stroke-width:1.0;"/><text fill="#000000" font-family="sans-serif" font-size="14" lengthAdjust="spacing" textLength="80" x="2261.5" y="308.2764">addPlayer()</text><ellipse cx="2252.5" cy="318.5781" fill="#84BE84" rx="3" ry="3" style="stroke:#038048;stroke-width:1.0;"/><text fill="#000000" font-family="sans-serif" font-size="14" lengthAdjust="spacing" textLength="95" x="2261.5" y="324.5732">asingcoords()</text><ellipse cx="2252.5" cy="334.875" fill="#84BE84" rx="3" ry="3" style="stroke:#038048;stroke-width:1.0;"/><text fill="#000000" font-family="sans-serif" font-size="14" lengthAdjust="spacing" textLength="60" x="2261.5" y="340.8701">display()</text></g><!--MD5=[8564769fdd39dc93b9be880f62453d37]
class CardList--><g id="elem_CardList"><rect codeLine="186" fill="#F1F1F1" height="178.375" id="CardList" rx="2.5" ry="2.5" style="stroke:#181818;stroke-width:0.5;" width="163" x="2443.5" y="162"/><ellipse cx="2491.25" cy="178" fill="#ADD1B2" rx="11" ry="11" style="stroke:#181818;stroke-width:1.0;"/><path d="M2493.5938,173.6719 C2492.6563,173.2344 2492.0625,173.0938 2491.1875,173.0938 C2488.5625,173.0938 2486.5625,175.1719 2486.5625,177.8906 L2486.5625,179.0156 C2486.5625,181.5938 2488.6719,183.4844 2491.5625,183.4844 C2492.7813,183.4844 2493.9375,183.1875 2494.6875,182.6406 C2495.2656,182.2344 2495.5938,181.7813 2495.5938,181.3906 C2495.5938,180.9375 2495.2031,180.5469 2494.7344,180.5469 C2494.5156,180.5469 2494.3125,180.625 2494.125,180.8125 C2493.6719,181.2969 2493.6719,181.2969 2493.4844,181.3906 C2493.0625,181.6563 2492.375,181.7813 2491.6094,181.7813 C2489.5625,181.7813 2488.2656,180.6875 2488.2656,178.9844 L2488.2656,177.8906 C2488.2656,176.1094 2489.5156,174.7969 2491.25,174.7969 C2491.8281,174.7969 2492.4375,174.9531 2492.9063,175.2031 C2493.3906,175.4844 2493.5625,175.7031 2493.6563,176.1094 C2493.7188,176.5156 2493.75,176.6406 2493.8906,176.7656 C2494.0313,176.9063 2494.2656,177.0156 2494.4844,177.0156 C2494.75,177.0156 2495.0156,176.875 2495.1875,176.6563 C2495.2969,176.5 2495.3281,176.3125 2495.3281,175.8906 L2495.3281,174.4688 C2495.3281,174.0313 2495.3125,173.9063 2495.2188,173.75 C2495.0625,173.4844 2494.7813,173.3438 2494.4844,173.3438 C2494.1875,173.3438 2493.9844,173.4375 2493.7656,173.75 L2493.5938,173.6719 Z " fill="#000000"/><text fill="#000000" font-family="sans-serif" font-size="14" lengthAdjust="spacing" textLength="59" x="2511.75" y="182.8467">CardList</text><line style="stroke:#181818;stroke-width:0.5;" x1="2444.5" x2="2605.5" y1="194" y2="194"/><ellipse cx="2454.5" cy="205" fill="none" rx="3" ry="3" style="stroke:#038048;stroke-width:1.0;"/><text fill="#000000" font-family="sans-serif" font-size="14" lengthAdjust="spacing" textLength="35" x="2463.5" y="210.9951">head</text><ellipse cx="2454.5" cy="221.2969" fill="none" rx="3" ry="3" style="stroke:#038048;stroke-width:1.0;"/><text fill="#000000" font-family="sans-serif" font-size="14" lengthAdjust="spacing" textLength="23" x="2463.5" y="227.292">tail</text><ellipse cx="2454.5" cy="237.5938" fill="none" rx="3" ry="3" style="stroke:#038048;stroke-width:1.0;"/><text fill="#000000" font-family="sans-serif" font-size="14" lengthAdjust="spacing" textLength="59" x="2463.5" y="243.5889">isPicked</text><ellipse cx="2454.5" cy="253.8906" fill="none" rx="3" ry="3" style="stroke:#038048;stroke-width:1.0;"/><text fill="#000000" font-family="sans-serif" font-size="14" lengthAdjust="spacing" textLength="28" x="2463.5" y="259.8857">size</text><line style="stroke:#181818;stroke-width:0.5;" x1="2444.5" x2="2605.5" y1="267.1875" y2="267.1875"/><ellipse cx="2454.5" cy="278.1875" fill="#84BE84" rx="3" ry="3" style="stroke:#038048;stroke-width:1.0;"/><text fill="#000000" font-family="sans-serif" font-size="14" lengthAdjust="spacing" textLength="36" x="2463.5" y="284.1826">add()</text><ellipse cx="2454.5" cy="294.4844" fill="#84BE84" rx="3" ry="3" style="stroke:#038048;stroke-width:1.0;"/><text fill="#000000" font-family="sans-serif" font-size="14" lengthAdjust="spacing" textLength="60" x="2463.5" y="300.4795">display()</text><ellipse cx="2454.5" cy="310.7813" fill="#84BE84" rx="3" ry="3" style="stroke:#038048;stroke-width:1.0;"/><text fill="#000000" font-family="sans-serif" font-size="14" lengthAdjust="spacing" textLength="66" x="2463.5" y="316.7764">loadList()</text><ellipse cx="2454.5" cy="327.0781" fill="#84BE84" rx="3" ry="3" style="stroke:#038048;stroke-width:1.0;"/><text fill="#000000" font-family="sans-serif" font-size="14" lengthAdjust="spacing" textLength="137" x="2463.5" y="333.0732">pickRandomNode()</text></g><!--MD5=[4054cdf643b9bb89467460a828d9aceb]
class CardNode--><g id="elem_CardNode"><rect codeLine="198" fill="#F1F1F1" height="129.4844" id="CardNode" rx="2.5" ry="2.5" style="stroke:#181818;stroke-width:0.5;" width="108" x="2471" y="841"/><ellipse cx="2488.7" cy="857" fill="#ADD1B2" rx="11" ry="11" style="stroke:#181818;stroke-width:1.0;"/><path d="M2491.0438,852.6719 C2490.1063,852.2344 2489.5125,852.0938 2488.6375,852.0938 C2486.0125,852.0938 2484.0125,854.1719 2484.0125,856.8906 L2484.0125,858.0156 C2484.0125,860.5938 2486.1219,862.4844 2489.0125,862.4844 C2490.2313,862.4844 2491.3875,862.1875 2492.1375,861.6406 C2492.7156,861.2344 2493.0438,860.7813 2493.0438,860.3906 C2493.0438,859.9375 2492.6531,859.5469 2492.1844,859.5469 C2491.9656,859.5469 2491.7625,859.625 2491.575,859.8125 C2491.1219,860.2969 2491.1219,860.2969 2490.9344,860.3906 C2490.5125,860.6563 2489.825,860.7813 2489.0594,860.7813 C2487.0125,860.7813 2485.7156,859.6875 2485.7156,857.9844 L2485.7156,856.8906 C2485.7156,855.1094 2486.9656,853.7969 2488.7,853.7969 C2489.2781,853.7969 2489.8875,853.9531 2490.3563,854.2031 C2490.8406,854.4844 2491.0125,854.7031 2491.1063,855.1094 C2491.1688,855.5156 2491.2,855.6406 2491.3406,855.7656 C2491.4813,855.9063 2491.7156,856.0156 2491.9344,856.0156 C2492.2,856.0156 2492.4656,855.875 2492.6375,855.6563 C2492.7469,855.5 2492.7781,855.3125 2492.7781,854.8906 L2492.7781,853.4688 C2492.7781,853.0313 2492.7625,852.9063 2492.6688,852.75 C2492.5125,852.4844 2492.2313,852.3438 2491.9344,852.3438 C2491.6375,852.3438 2491.4344,852.4375 2491.2156,852.75 L2491.0438,852.6719 Z " fill="#000000"/><text fill="#000000" font-family="sans-serif" font-size="14" lengthAdjust="spacing" textLength="70" x="2503.3" y="861.8467">CardNode</text><line style="stroke:#181818;stroke-width:0.5;" x1="2472" x2="2578" y1="873" y2="873"/><ellipse cx="2482" cy="884" fill="none" rx="3" ry="3" style="stroke:#038048;stroke-width:1.0;"/><text fill="#000000" font-family="sans-serif" font-size="14" lengthAdjust="spacing" textLength="82" x="2491" y="889.9951">description</text><ellipse cx="2482" cy="900.2969" fill="none" rx="3" ry="3" style="stroke:#038048;stroke-width:1.0;"/><text fill="#000000" font-family="sans-serif" font-size="14" lengthAdjust="spacing" textLength="34" x="2491" y="906.292">type</text><ellipse cx="2482" cy="916.5938" fill="none" rx="3" ry="3" style="stroke:#038048;stroke-width:1.0;"/><text fill="#000000" font-family="sans-serif" font-size="14" lengthAdjust="spacing" textLength="46" x="2491" y="922.5889">param</text><ellipse cx="2482" cy="932.8906" fill="none" rx="3" ry="3" style="stroke:#038048;stroke-width:1.0;"/><text fill="#000000" font-family="sans-serif" font-size="14" lengthAdjust="spacing" textLength="33" x="2491" y="938.8857">next</text><ellipse cx="2482" cy="949.1875" fill="none" rx="3" ry="3" style="stroke:#038048;stroke-width:1.0;"/><text fill="#000000" font-family="sans-serif" font-size="14" lengthAdjust="spacing" textLength="33" x="2491" y="955.1826">prev</text><line style="stroke:#181818;stroke-width:0.5;" x1="2472" x2="2578" y1="962.4844" y2="962.4844"/></g><!--MD5=[9563755d011c5cec7ec66dc53565a59e]
class Board--><g id="elem_Board"><rect codeLine="6" fill="#F1F1F1" height="145.7813" id="Board" rx="2.5" ry="2.5" style="stroke:#181818;stroke-width:0.5;" width="148" x="331" y="178"/><ellipse cx="379.75" cy="194" fill="#ADD1B2" rx="11" ry="11" style="stroke:#181818;stroke-width:1.0;"/><path d="M382.0938,189.6719 C381.1563,189.2344 380.5625,189.0938 379.6875,189.0938 C377.0625,189.0938 375.0625,191.1719 375.0625,193.8906 L375.0625,195.0156 C375.0625,197.5938 377.1719,199.4844 380.0625,199.4844 C381.2813,199.4844 382.4375,199.1875 383.1875,198.6406 C383.7656,198.2344 384.0938,197.7813 384.0938,197.3906 C384.0938,196.9375 383.7031,196.5469 383.2344,196.5469 C383.0156,196.5469 382.8125,196.625 382.625,196.8125 C382.1719,197.2969 382.1719,197.2969 381.9844,197.3906 C381.5625,197.6563 380.875,197.7813 380.1094,197.7813 C378.0625,197.7813 376.7656,196.6875 376.7656,194.9844 L376.7656,193.8906 C376.7656,192.1094 378.0156,190.7969 379.75,190.7969 C380.3281,190.7969 380.9375,190.9531 381.4063,191.2031 C381.8906,191.4844 382.0625,191.7031 382.1563,192.1094 C382.2188,192.5156 382.25,192.6406 382.3906,192.7656 C382.5313,192.9063 382.7656,193.0156 382.9844,193.0156 C383.25,193.0156 383.5156,192.875 383.6875,192.6563 C383.7969,192.5 383.8281,192.3125 383.8281,191.8906 L383.8281,190.4688 C383.8281,190.0313 383.8125,189.9063 383.7188,189.75 C383.5625,189.4844 383.2813,189.3438 382.9844,189.3438 C382.6875,189.3438 382.4844,189.4375 382.2656,189.75 L382.0938,189.6719 Z " fill="#000000"/><text fill="#000000" font-family="sans-serif" font-size="14" lengthAdjust="spacing" textLength="42" x="400.25" y="198.8467">Board</text><line style="stroke:#181818;stroke-width:0.5;" x1="332" x2="478" y1="210" y2="210"/><ellipse cx="342" cy="221" fill="none" rx="3" ry="3" style="stroke:#038048;stroke-width:1.0;"/><text fill="#000000" font-family="sans-serif" font-size="14" lengthAdjust="spacing" textLength="35" x="351" y="226.9951">start</text><ellipse cx="342" cy="237.2969" fill="none" rx="3" ry="3" style="stroke:#038048;stroke-width:1.0;"/><text fill="#000000" font-family="sans-serif" font-size="14" lengthAdjust="spacing" textLength="27" x="351" y="243.292">end</text><ellipse cx="342" cy="253.5938" fill="none" rx="3" ry="3" style="stroke:#038048;stroke-width:1.0;"/><text fill="#000000" font-family="sans-serif" font-size="14" lengthAdjust="spacing" textLength="39" x="351" y="259.5889">index</text><line style="stroke:#181818;stroke-width:0.5;" x1="332" x2="478" y1="266.8906" y2="266.8906"/><ellipse cx="342" cy="277.8906" fill="#84BE84" rx="3" ry="3" style="stroke:#038048;stroke-width:1.0;"/><text fill="#000000" font-family="sans-serif" font-size="14" lengthAdjust="spacing" textLength="63" x="351" y="283.8857">addBox()</text><rect fill="#F24D5C" height="6" style="stroke:#C82930;stroke-width:1.0;" width="6" x="339" y="291.1875"/><text fill="#000000" font-family="sans-serif" font-size="14" lengthAdjust="spacing" textLength="122" x="351" y="300.1826">determineType()</text><ellipse cx="342" cy="310.4844" fill="#84BE84" rx="3" ry="3" style="stroke:#038048;stroke-width:1.0;"/><text fill="#000000" font-family="sans-serif" font-size="14" lengthAdjust="spacing" textLength="82" x="351" y="316.4795">loadBoard()</text></g><!--MD5=[f55d592c5130daf0ceebcd2d990036d6]
class Bank--><g id="elem_Bank"><rect codeLine="15" fill="#F1F1F1" height="488.0156" id="Bank" rx="2.5" ry="2.5" style="stroke:#181818;stroke-width:0.5;" width="212" x="514" y="7"/><ellipse cx="597.75" cy="23" fill="#ADD1B2" rx="11" ry="11" style="stroke:#181818;stroke-width:1.0;"/><path d="M600.0938,18.6719 C599.1563,18.2344 598.5625,18.0938 597.6875,18.0938 C595.0625,18.0938 593.0625,20.1719 593.0625,22.8906 L593.0625,24.0156 C593.0625,26.5938 595.1719,28.4844 598.0625,28.4844 C599.2813,28.4844 600.4375,28.1875 601.1875,27.6406 C601.7656,27.2344 602.0938,26.7813 602.0938,26.3906 C602.0938,25.9375 601.7031,25.5469 601.2344,25.5469 C601.0156,25.5469 600.8125,25.625 600.625,25.8125 C600.1719,26.2969 600.1719,26.2969 599.9844,26.3906 C599.5625,26.6563 598.875,26.7813 598.1094,26.7813 C596.0625,26.7813 594.7656,25.6875 594.7656,23.9844 L594.7656,22.8906 C594.7656,21.1094 596.0156,19.7969 597.75,19.7969 C598.3281,19.7969 598.9375,19.9531 599.4063,20.2031 C599.8906,20.4844 600.0625,20.7031 600.1563,21.1094 C600.2188,21.5156 600.25,21.6406 600.3906,21.7656 C600.5313,21.9063 600.7656,22.0156 600.9844,22.0156 C601.25,22.0156 601.5156,21.875 601.6875,21.6563 C601.7969,21.5 601.8281,21.3125 601.8281,20.8906 L601.8281,19.4688 C601.8281,19.0313 601.8125,18.9063 601.7188,18.75 C601.5625,18.4844 601.2813,18.3438 600.9844,18.3438 C600.6875,18.3438 600.4844,18.4375 600.2656,18.75 L600.0938,18.6719 Z " fill="#000000"/><text fill="#000000" font-family="sans-serif" font-size="14" lengthAdjust="spacing" textLength="36" x="618.25" y="27.8467">Bank</text><line style="stroke:#181818;stroke-width:0.5;" x1="515" x2="725" y1="39" y2="39"/><ellipse cx="525" cy="50" fill="none" rx="3" ry="3" style="stroke:#038048;stroke-width:1.0;"/><text fill="#000000" font-family="sans-serif" font-size="14" lengthAdjust="spacing" textLength="79" x="534" y="55.9951">taxeMoney</text><ellipse cx="525" cy="66.2969" fill="none" rx="3" ry="3" style="stroke:#038048;stroke-width:1.0;"/><text fill="#000000" font-family="sans-serif" font-size="14" lengthAdjust="spacing" textLength="32" x="534" y="72.292">Leer</text><ellipse cx="525" cy="82.5938" fill="none" rx="3" ry="3" style="stroke:#038048;stroke-width:1.0;"/><text fill="#000000" font-family="sans-serif" font-size="14" lengthAdjust="spacing" textLength="29" x="534" y="88.5889">luck</text><ellipse cx="525" cy="98.8906" fill="none" rx="3" ry="3" style="stroke:#038048;stroke-width:1.0;"/><text fill="#000000" font-family="sans-serif" font-size="14" lengthAdjust="spacing" textLength="23" x="534" y="104.8857">ark</text><ellipse cx="525" cy="115.1875" fill="none" rx="3" ry="3" style="stroke:#038048;stroke-width:1.0;"/><text fill="#000000" font-family="sans-serif" font-size="14" lengthAdjust="spacing" textLength="71" x="534" y="121.1826">playerList</text><ellipse cx="525" cy="131.4844" fill="none" rx="3" ry="3" style="stroke:#038048;stroke-width:1.0;"/><text fill="#000000" font-family="sans-serif" font-size="14" lengthAdjust="spacing" textLength="42" x="534" y="137.4795">board</text><ellipse cx="525" cy="147.7813" fill="none" rx="3" ry="3" style="stroke:#038048;stroke-width:1.0;"/><text fill="#000000" font-family="sans-serif" font-size="14" lengthAdjust="spacing" textLength="26" x="534" y="153.7764">buy</text><ellipse cx="525" cy="164.0781" fill="none" rx="3" ry="3" style="stroke:#038048;stroke-width:1.0;"/><text fill="#000000" font-family="sans-serif" font-size="14" lengthAdjust="spacing" textLength="109" x="534" y="170.0732">fallontransport</text><ellipse cx="525" cy="180.375" fill="none" rx="3" ry="3" style="stroke:#038048;stroke-width:1.0;"/><text fill="#000000" font-family="sans-serif" font-size="14" lengthAdjust="spacing" textLength="26" x="534" y="186.3701">pay</text><ellipse cx="525" cy="196.6719" fill="none" rx="3" ry="3" style="stroke:#038048;stroke-width:1.0;"/><text fill="#000000" font-family="sans-serif" font-size="14" lengthAdjust="spacing" textLength="48" x="534" y="202.667">paying</text><ellipse cx="525" cy="212.9688" fill="none" rx="3" ry="3" style="stroke:#038048;stroke-width:1.0;"/><text fill="#000000" font-family="sans-serif" font-size="14" lengthAdjust="spacing" textLength="98" x="534" y="218.9639">fallonservices</text><ellipse cx="525" cy="229.2656" fill="none" rx="3" ry="3" style="stroke:#038048;stroke-width:1.0;"/><text fill="#000000" font-family="sans-serif" font-size="14" lengthAdjust="spacing" textLength="75" x="534" y="235.2607">launchluck</text><ellipse cx="525" cy="245.5625" fill="none" rx="3" ry="3" style="stroke:#038048;stroke-width:1.0;"/><text fill="#000000" font-family="sans-serif" font-size="14" lengthAdjust="spacing" textLength="31" x="534" y="251.5576">card</text><ellipse cx="525" cy="261.8594" fill="none" rx="3" ry="3" style="stroke:#038048;stroke-width:1.0;"/><text fill="#000000" font-family="sans-serif" font-size="14" lengthAdjust="spacing" textLength="37" x="534" y="267.8545">ofert</text><ellipse cx="525" cy="278.1563" fill="none" rx="3" ry="3" style="stroke:#038048;stroke-width:1.0;"/><text fill="#000000" font-family="sans-serif" font-size="14" lengthAdjust="spacing" textLength="66" x="534" y="284.1514">launchjail</text><ellipse cx="525" cy="294.4531" fill="none" rx="3" ry="3" style="stroke:#038048;stroke-width:1.0;"/><text fill="#000000" font-family="sans-serif" font-size="14" lengthAdjust="spacing" textLength="110" x="534" y="300.4482">launchwelcome</text><line style="stroke:#181818;stroke-width:0.5;" x1="515" x2="725" y1="307.75" y2="307.75"/><ellipse cx="525" cy="318.75" fill="#84BE84" rx="3" ry="3" style="stroke:#038048;stroke-width:1.0;"/><text fill="#000000" font-family="sans-serif" font-size="14" lengthAdjust="spacing" textLength="115" x="534" y="324.7451">demandMoney()</text><ellipse cx="525" cy="335.0469" fill="#84BE84" rx="3" ry="3" style="stroke:#038048;stroke-width:1.0;"/><text fill="#000000" font-family="sans-serif" font-size="14" lengthAdjust="spacing" textLength="163" x="534" y="341.042">demortgageProperty()</text><ellipse cx="525" cy="351.3438" fill="#84BE84" rx="3" ry="3" style="stroke:#038048;stroke-width:1.0;"/><text fill="#000000" font-family="sans-serif" font-size="14" lengthAdjust="spacing" textLength="186" x="534" y="357.3389">demandMoneyForJailExit()</text><ellipse cx="525" cy="367.6406" fill="#84BE84" rx="3" ry="3" style="stroke:#038048;stroke-width:1.0;"/><text fill="#000000" font-family="sans-serif" font-size="14" lengthAdjust="spacing" textLength="145" x="534" y="373.6357">mortgageProperty()</text><ellipse cx="525" cy="383.9375" fill="#84BE84" rx="3" ry="3" style="stroke:#038048;stroke-width:1.0;"/><text fill="#000000" font-family="sans-serif" font-size="14" lengthAdjust="spacing" textLength="110" x="534" y="389.9326">offerProperty()</text><ellipse cx="525" cy="400.2344" fill="#84BE84" rx="3" ry="3" style="stroke:#038048;stroke-width:1.0;"/><text fill="#000000" font-family="sans-serif" font-size="14" lengthAdjust="spacing" textLength="36" x="534" y="406.2295">pay()</text><ellipse cx="525" cy="416.5313" fill="#84BE84" rx="3" ry="3" style="stroke:#038048;stroke-width:1.0;"/><text fill="#000000" font-family="sans-serif" font-size="14" lengthAdjust="spacing" textLength="56" x="534" y="422.5264">payGo()</text><ellipse cx="525" cy="432.8281" fill="#84BE84" rx="3" ry="3" style="stroke:#038048;stroke-width:1.0;"/><text fill="#000000" font-family="sans-serif" font-size="14" lengthAdjust="spacing" textLength="129" x="534" y="438.8232">removeProperty()</text><ellipse cx="525" cy="449.125" fill="#84BE84" rx="3" ry="3" style="stroke:#038048;stroke-width:1.0;"/><text fill="#000000" font-family="sans-serif" font-size="14" lengthAdjust="spacing" textLength="65" x="534" y="455.1201">request()</text><ellipse cx="525" cy="465.4219" fill="#84BE84" rx="3" ry="3" style="stroke:#038048;stroke-width:1.0;"/><text fill="#000000" font-family="sans-serif" font-size="14" lengthAdjust="spacing" textLength="115" x="534" y="471.417">transferMoney()</text><ellipse cx="525" cy="481.7188" fill="#84BE84" rx="3" ry="3" style="stroke:#038048;stroke-width:1.0;"/><text fill="#000000" font-family="sans-serif" font-size="14" lengthAdjust="spacing" textLength="125" x="534" y="487.7139">tranferProperty()</text></g><!--MD5=[686c3cedd0227e17b931521255865ede]
reverse link dicesResult to dices--><g id="link_dicesResult_dices"><path codeLine="62" d="M817.176,328.766 C815.813,455.879 813.105,708.328 811.774,832.339 " fill="none" id="dicesResult-backto-dices" style="stroke:#181818;stroke-width:1.0;"/><polygon fill="none" points="817.316,315.752,813.2516,321.7086,817.1868,327.7513,821.2511,321.7947,817.316,315.752" style="stroke:#181818;stroke-width:1.0;"/><text fill="#000000" font-family="sans-serif" font-size="13" lengthAdjust="spacing" textLength="77" x="816" y="538.0669">aggregation</text></g><!--MD5=[931ea52440d120395630a496d7b72d18]
reverse link Card to Ark--><g id="link_Card_Ark"><path codeLine="97" d="M1364.63,285.462 C1263.42,333.134 1090.3,430.761 1006,572 C945.221,673.831 952.004,823.874 957.342,881.132 " fill="none" id="Card-backto-Ark" style="stroke:#181818;stroke-width:1.0;"/><polygon fill="none" points="1361.86,279.029,1382.95,277.006,1367.73,291.741,1361.86,279.029" style="stroke:#181818;stroke-width:1.0;"/><text fill="#000000" font-family="sans-serif" font-size="13" lengthAdjust="spacing" textLength="52" x="1032" y="538.0669">extends</text></g><!--MD5=[ebb8147b50491835ea37c16f5e0f32f2]
reverse link Card to FreeStop--><g id="link_Card_FreeStop"><path codeLine="99" d="M1366.88,309.827 C1296.17,367.974 1193.93,464.254 1140,572 C1086.5,678.896 1075.72,825.338 1073.55,881.392 " fill="none" id="Card-backto-FreeStop" style="stroke:#181818;stroke-width:1.0;"/><polygon fill="none" points="1362.84,304.09,1382.79,296.946,1371.65,314.971,1362.84,304.09" style="stroke:#181818;stroke-width:1.0;"/><text fill="#000000" font-family="sans-serif" font-size="13" lengthAdjust="spacing" textLength="52" x="1165" y="538.0669">extends</text></g><!--MD5=[68596cff83156714c38b06589ef623dc]
reverse link Card to Go--><g id="link_Card_Go"><path codeLine="101" d="M1370.08,336.11 C1321.24,397.328 1260.05,484.51 1227,572 C1185.35,682.263 1182.69,826.134 1183.39,881.451 " fill="none" id="Card-backto-Go" style="stroke:#181818;stroke-width:1.0;"/><polygon fill="none" points="1364.82,331.479,1382.84,320.339,1375.7,340.288,1364.82,331.479" style="stroke:#181818;stroke-width:1.0;"/><text fill="#000000" font-family="sans-serif" font-size="13" lengthAdjust="spacing" textLength="52" x="1245" y="538.0669">extends</text></g><!--MD5=[a50824f080430f90a6e6c56a3ee0cad3]
reverse link Card to GoToJail--><g id="link_Card_GoToJail"><path codeLine="103" d="M1376.82,391.799 C1359.36,433.8 1342.28,480.547 1331,525 C1297.51,657 1291.37,821.621 1290.25,881.433 " fill="none" id="Card-backto-GoToJail" style="stroke:#181818;stroke-width:1.0;"/><polygon fill="none" points="1370.46,388.86,1384.71,373.175,1383.35,394.321,1370.46,388.86" style="stroke:#181818;stroke-width:1.0;"/><text fill="#000000" font-family="sans-serif" font-size="13" lengthAdjust="spacing" textLength="52" x="1332" y="538.0669">extends</text></g><!--MD5=[59e11fd285989a8004ac8de1325178a4]
reverse link Card to Jail--><g id="link_Card_Jail"><path codeLine="105" d="M1412.14,393.026 C1404.27,435.252 1396.92,481.813 1393,525 C1380.78,659.516 1390.06,821.951 1394.24,881.332 " fill="none" id="Card-backto-Jail" style="stroke:#181818;stroke-width:1.0;"/><polygon fill="none" points="1405.28,391.648,1415.91,373.32,1419.03,394.279,1405.28,391.648" style="stroke:#181818;stroke-width:1.0;"/><text fill="#000000" font-family="sans-serif" font-size="13" lengthAdjust="spacing" textLength="52" x="1394" y="538.0669">extends</text></g><!--MD5=[f8dfa8134e81b76c3ac5271f0711a014]
reverse link Card to Luck--><g id="link_Card_Luck"><path codeLine="107" d="M1453.18,393.324 C1464.76,554.146 1482.8,804.48 1488.33,881.301 " fill="none" id="Card-backto-Luck" style="stroke:#181818;stroke-width:1.0;"/><polygon fill="none" points="1446.19,393.652,1451.73,373.201,1460.15,392.646,1446.19,393.652" style="stroke:#181818;stroke-width:1.0;"/><text fill="#000000" font-family="sans-serif" font-size="13" lengthAdjust="spacing" textLength="52" x="1465" y="538.0669">extends</text></g><!--MD5=[3505a134186ed3c0b9d63e41922e682d]
reverse link Card to Ownership--><g id="link_Card_Ownership"><path codeLine="109" d="M1485.87,392.467 C1498.82,435.027 1513.03,481.91 1526,525 C1532.28,545.871 1534.58,550.889 1540,572 C1569.6,687.273 1597.21,827.078 1607.62,881.381 " fill="none" id="Card-backto-Ownership" style="stroke:#181818;stroke-width:1.0;"/><polygon fill="none" points="1479.15,394.418,1480.02,373.247,1492.54,390.342,1479.15,394.418" style="stroke:#181818;stroke-width:1.0;"/><text fill="#000000" font-family="sans-serif" font-size="13" lengthAdjust="spacing" textLength="52" x="1533" y="538.0669">extends</text></g><!--MD5=[1dfc9f4df8a54314f7edeaa812775b72]
reverse link Card to Service--><g id="link_Card_Service"><path codeLine="111" d="M1516.51,328.327 C1571.03,389.385 1642.64,479.773 1683,572 C1730.64,680.878 1741.08,825.555 1743.36,881.27 " fill="none" id="Card-backto-Service" style="stroke:#181818;stroke-width:1.0;"/><polygon fill="none" points="1511.27,332.977,1503.04,313.453,1521.65,323.582,1511.27,332.977" style="stroke:#181818;stroke-width:1.0;"/><text fill="#000000" font-family="sans-serif" font-size="13" lengthAdjust="spacing" textLength="52" x="1666" y="538.0669">extends</text></g><!--MD5=[a1ccfb88469917c65becd722562df8d4]
reverse link Card to Taxes--><g id="link_Card_Taxes"><path codeLine="113" d="M1520.08,297.339 C1604.5,351.396 1736.81,449.95 1804,572 C1861.4,676.255 1861.66,824.868 1859.36,881.438 " fill="none" id="Card-backto-Taxes" style="stroke:#181818;stroke-width:1.0;"/><polygon fill="none" points="1516.29,303.225,1503.09,286.647,1523.75,291.376,1516.29,303.225" style="stroke:#181818;stroke-width:1.0;"/><text fill="#000000" font-family="sans-serif" font-size="13" lengthAdjust="spacing" textLength="52" x="1785" y="538.0669">extends</text></g><!--MD5=[bdeccd22667fa9a3b3b47febe6c742bb]
reverse link Card to Transport--><g id="link_Card_Transport"><path codeLine="115" d="M1521.87,282.743 C1628.58,328.671 1816.54,425.761 1912,572 C1977.74,672.713 1982.52,824.055 1981.75,881.383 " fill="none" id="Card-backto-Transport" style="stroke:#181818;stroke-width:1.0;"/><polygon fill="none" points="1518.96,289.112,1503.25,274.893,1524.4,276.211,1518.96,289.112" style="stroke:#181818;stroke-width:1.0;"/><text fill="#000000" font-family="sans-serif" font-size="13" lengthAdjust="spacing" textLength="52" x="1887" y="538.0669">extends</text></g><!--MD5=[d3344cd1cedaec1efbf05c43506624b9]
reverse link PlayerList to Player--><g id="link_PlayerList_Player"><path codeLine="170" d="M2309.84,361.989 C2310.29,420.505 2310.87,495.911 2311.45,571.782 " fill="none" id="PlayerList-backto-Player" style="stroke:#181818;stroke-width:1.0;"/><polygon fill="#181818" points="2309.74,348.63,2305.7863,354.6606,2309.8323,360.6296,2313.786,354.5991,2309.74,348.63" style="stroke:#181818;stroke-width:1.0;"/><text fill="#000000" font-family="sans-serif" font-size="13" lengthAdjust="spacing" textLength="78" x="2313" y="538.0669">composition</text></g><!--MD5=[2226e11d329311050cd3e761f112710d]
reverse link CardList to CardNode--><g id="link_CardList_CardNode"><path codeLine="197" d="M2525,353.601 C2525,489.832 2525,727.646 2525,840.96 " fill="none" id="CardList-backto-CardNode" style="stroke:#181818;stroke-width:1.0;"/><polygon fill="#181818" points="2525,340.338,2521,346.338,2525,352.338,2529,346.338,2525,340.338" style="stroke:#181818;stroke-width:1.0;"/></g><!--MD5=[5cabf2d2082891755621326a66a53305]
@startuml
' Split into 4 pages
page 4x2
skinparam pageMargin 10
skinparam pageExternalColor gray
skinparam pageBorderColor blac
class Board {
  + start
  +end
  +index
  +addBox()
  -determineType()
  +loadBoard()
}

class Bank{
  +taxeMoney
  +Leer
  +luck
  +ark
  +playerList
  +board
  +buy
  +fallontransport
  +pay
  +paying
  +fallonservices
  +launchluck
  +card
  +ofert
  +launchjail
  +launchwelcome
  +demandMoney()
  +demortgageProperty()
  +demandMoneyForJailExit()
  +mortgageProperty()
  +offerProperty()
  +pay()
  +payGo()
  +removeProperty()
  +request()
  +transferMoney()
  +tranferProperty()
  
}

package dices <<rectangle>>{
    class dices{
      {static} +dices
      {static} +pahtDices
      {static} +upLoad()
      {static} +max_value
      {static} +rollDices()
      {static} +isPair() 
    }
    class dicesResult{
        +results
        +isPair
        +result
        +pathDices
        +display()
      }
    dicesResult o- - dices : aggregation
  }
package util <<rectangle>>{
  class DeleteRegister{
    + {static} deleteRegister()
  }
  
  class ReadFile{
    + {static} read()
  }
  class WriteFile{
  + {static} appendall()
  + {static} createFile()
  + {static} write()
  + {static} writeall()
}
}

package cards <<rectangle>>{
  abstract class Card{
    +name
    +isOwnable
    +isOwned
    +isMortgable
    +isMortgabled
    +selling_price
    +rental_price
    +type
    +owner
    +index
    +next
    +prev
  }
  
  class Ark{}
  Card <|- -	Ark : extends
  class FreeStop{}
  Card <|- -	FreeStop : extends
  class Go{}
  Card <|- -	Go : extends
  class GoToJail{}
  Card <|- -	GoToJail : extends
  class Jail{}
  Card <|- -	Jail : extends
  class Luck{}
  Card <|- -	Luck : extends
  class Ownership{}
  Card <|- -	Ownership : extends
  class Service{}
  Card <|- -	Service : extends
  class Taxes{}
  Card <|- -	Taxes : extends
  class Transport{}
  Card <|- -	Transport : extends
}

package pieces <<rectangle>>{
  class Pieces{
    +distancex
    +distancey
    +posx
    +posy
    +topex
    +topey
  } 
}

package player <<rectangle>>{
  class Player{
    +name
    +turno
    +money
    +position
    +isPrisoner
    +turnsInJail
    +isBroken
    +next
    +prev
    +result
    +properties
    +bank
    +services
    +transport
    +outjail
    +num_properties
    +numpairs
    +piece
    +boleano
    +movearound
    -move
    +coords
    +coor
    +teleport
    +getMoney()
    +giveMoney()
    +goJail()
    +isInGo()
    +moveAround()
    +moveAround()
    +moveBackward()
    +moveBackward()
    +moveForward()
    +buyProperty()
    +moveTo()
    +movePiece()
    +playInJail()
    +rollDices()
  }
  PlayerList *- - Player : composition
  class PlayerList{
    +playersNumber
    +head
    +tail
    +result
    +cordsx
    +cordsy
    +addPlayer()
    +asingcoords()
    +display()
  }
  
}

package specialcards{
  class CardList{
    +head
    +tail
    +isPicked
    +size
    +add()
    +display()
    +loadList()
    +pickRandomNode()
  }
  
  CardList *- - CardNode
  class CardNode{
    +description
    +type
    +param
    +next
    +prev
  }
}
@enduml

@startuml
page 4x2
skinparam pageMargin 10
skinparam pageExternalColor gray
skinparam pageBorderColor blac
class Board {
  + start
  +end
  +index
  +addBox()
  -determineType()
  +loadBoard()
}

class Bank{
  +taxeMoney
  +Leer
  +luck
  +ark
  +playerList
  +board
  +buy
  +fallontransport
  +pay
  +paying
  +fallonservices
  +launchluck
  +card
  +ofert
  +launchjail
  +launchwelcome
  +demandMoney()
  +demortgageProperty()
  +demandMoneyForJailExit()
  +mortgageProperty()
  +offerProperty()
  +pay()
  +payGo()
  +removeProperty()
  +request()
  +transferMoney()
  +tranferProperty()
  
}

package dices <<rectangle>>{
    class dices{
      {static} +dices
      {static} +pahtDices
      {static} +upLoad()
      {static} +max_value
      {static} +rollDices()
      {static} +isPair() 
    }
    class dicesResult{
        +results
        +isPair
        +result
        +pathDices
        +display()
      }
    dicesResult o- - dices : aggregation
  }
package util <<rectangle>>{
  class DeleteRegister{
    + {static} deleteRegister()
  }
  
  class ReadFile{
    + {static} read()
  }
  class WriteFile{
  + {static} appendall()
  + {static} createFile()
  + {static} write()
  + {static} writeall()
}
}

package cards <<rectangle>>{
  abstract class Card{
    +name
    +isOwnable
    +isOwned
    +isMortgable
    +isMortgabled
    +selling_price
    +rental_price
    +type
    +owner
    +index
    +next
    +prev
  }
  
  class Ark{}
  Card <|- -	Ark : extends
  class FreeStop{}
  Card <|- -	FreeStop : extends
  class Go{}
  Card <|- -	Go : extends
  class GoToJail{}
  Card <|- -	GoToJail : extends
  class Jail{}
  Card <|- -	Jail : extends
  class Luck{}
  Card <|- -	Luck : extends
  class Ownership{}
  Card <|- -	Ownership : extends
  class Service{}
  Card <|- -	Service : extends
  class Taxes{}
  Card <|- -	Taxes : extends
  class Transport{}
  Card <|- -	Transport : extends
}

package pieces <<rectangle>>{
  class Pieces{
    +distancex
    +distancey
    +posx
    +posy
    +topex
    +topey
  } 
}

package player <<rectangle>>{
  class Player{
    +name
    +turno
    +money
    +position
    +isPrisoner
    +turnsInJail
    +isBroken
    +next
    +prev
    +result
    +properties
    +bank
    +services
    +transport
    +outjail
    +num_properties
    +numpairs
    +piece
    +boleano
    +movearound
    -move
    +coords
    +coor
    +teleport
    +getMoney()
    +giveMoney()
    +goJail()
    +isInGo()
    +moveAround()
    +moveAround()
    +moveBackward()
    +moveBackward()
    +moveForward()
    +buyProperty()
    +moveTo()
    +movePiece()
    +playInJail()
    +rollDices()
  }
  PlayerList *- - Player : composition
  class PlayerList{
    +playersNumber
    +head
    +tail
    +result
    +cordsx
    +cordsy
    +addPlayer()
    +asingcoords()
    +display()
  }
  
}

package specialcards{
  class CardList{
    +head
    +tail
    +isPicked
    +size
    +add()
    +display()
    +loadList()
    +pickRandomNode()
  }
  
  CardList *- - CardNode
  class CardNode{
    +description
    +type
    +param
    +next
    +prev
  }
}
@enduml

PlantUML version 1.2022.6beta2(Unknown compile time)
(GPL source distribution)
Java Runtime: Java(TM) SE Runtime Environment
JVM: Java HotSpot(TM) 64-Bit Server VM
Default Encoding: UTF-8
Language: en
Country: US
--></g></svg>